<?xml version="1.0" encoding="UTF-8"?>
<svg id="Layer_1" data-name="Layer 1" xmlns="http://www.w3.org/2000/svg" viewBox="0 0 372.35 383.88">
  <defs>
    <style>
      .action_icon {
        fill: #010101;
        stroke-width: 0px;
      }
    </style>
  </defs>
  <path class="action_icon" d="m164.49,383.88c.34-1.44-.82-2.27-1.42-3.28-16.54-27.88-33.13-55.71-49.63-83.62-1.38-2.34-2.35-2.99-4.94-1.4-7.41,4.54-14.64,9.45-23.45,11.23-18.44,3.71-37.26-3.68-47.08-19.57-11.14-18.03-22.02-36.23-32.39-54.7-11.81-21.05-4.19-47.51,16.61-60,20.51-12.33,41.55-23.81,61.56-36.94,36.38-23.88,64.97-55.09,85.73-93.37,5.47-10.09,9.09-21.02,13.68-31.51.55-1.25,1.05-2.52,1.85-4.42,45.96,77.52,91.65,154.58,137.6,232.08-10.21-1.07-19.74-2.08-29.28-3.07-13.76-1.43-27.45-.46-41.11,1.2-40.51,4.92-77.8,18.79-112.3,40.45-2.34,1.47-2.25,2.35-.99,4.45,16.72,27.91,33.3,55.91,50.05,83.8,1.55,2.58,1.54,3.69-1.26,5.24-6.76,3.73-13.3,7.87-19.92,11.86-.68.41-1.73.46-1.82,1.57h-1.5Zm23.64-313.53c-.91,1.37-1.69,2.49-2.42,3.64-8.97,14.16-19.2,27.37-30.47,39.77-21.94,24.15-47.45,43.77-75.87,59.66-2.52,1.41-3.14,2.4-1.44,5.22,13.62,22.64,27.03,45.4,40.5,68.12,3.59,6.05,3.63,6.11,9.69,2.39,41.98-25.76,87.39-40.84,136.65-43.86,3.98-.24,2.28-1.88,1.27-3.59-17.04-28.72-34.08-57.45-51.11-86.17-8.89-14.99-17.76-29.98-26.78-45.19ZM30.14,212.27c-.12,1.72.57,4.12,1.86,6.29,10.34,17.48,20.62,35,31.14,52.37,4.11,6.78,12.32,8.81,19.35,5.16,4.08-2.12,7.95-4.66,11.98-6.9,1.41-.79,1.55-1.49.73-2.87-14.6-24.52-29.16-49.06-43.69-73.62-.86-1.46-1.47-1.93-3.11-.88-3.77,2.43-7.78,4.48-11.52,6.94-4.48,2.94-6.74,7.22-6.72,13.5Z"/>
  <path class="action_icon" d="m258.95,0c6.88,2.83,14.25,3.9,21.36,5.92,5.55,1.58,5.62,1.43,4.18,7.06-4.22,16.54-8.53,33.06-12.64,49.62-.62,2.51-1.37,2.82-3.77,2.14-7.67-2.17-15.4-4.15-23.17-5.9-2.6-.58-2.76-1.58-2.18-3.8,4.62-17.72,9.15-35.47,13.7-53.21.15-.6.19-1.22.28-1.84.75,0,1.5,0,2.25,0Z"/>
  <path class="action_icon" d="m372.23,154.78c-2.31,8.97-4.55,17.52-6.72,26.1-.61,2.43-2.06,1.07-3.19.78-14.49-3.67-28.98-7.37-43.46-11.08-3.14-.8-6.24-1.78-9.41-2.41-1.84-.37-2.48-.76-1.9-2.86,2.23-8.17,4.23-16.41,6.27-24.63.4-1.61.99-2.18,2.84-1.7,17.71,4.65,35.45,9.18,53.19,13.74,1.32.34,2.96.3,2.37,2.05Z"/>
  <path class="cls-1" d="m310.69,108.73c-1.06.14-1.3-.66-1.67-1.28-4.46-7.5-8.85-15.05-13.41-22.48-1.24-2.02.26-2.33,1.34-2.97,14.47-8.6,28.94-17.18,43.43-25.75,5.9-3.49,5.92-3.46,9.48,2.54,3.5,5.9,6.98,11.81,10.52,17.68.78,1.29,1.29,2.1-.51,3.16-16.02,9.4-31.97,18.9-47.95,28.37-.43.25-.85.51-1.22.73Z"/>
</svg>