<?xml version="1.0" encoding="UTF-8"?>
<svg id="Layer_1" data-name="Layer 1" xmlns="http://www.w3.org/2000/svg" viewBox="0 0 182.71 438.04">
  <defs>
    <style>
      .attach_icon {
        stroke-width: 0px;
      }
    </style>
  </defs>
  <path class="attach_icon" d="m82.81,438.04c-7.71-1.91-15.69-3.08-23.08-5.84C23.27,418.58.36,385.38.08,346.19c-.16-22.53-.03-45.05-.03-67.58,0-71-.03-142,.02-213C.09,35.64,18.41,10.63,46,2.63c41.41-12.01,81.74,18.59,81.9,62.39.17,46.34.04,92.67.04,139.01,0,34.79.04,69.58-.02,104.36-.03,17.85-9.99,31.89-25.83,36.74-21.72,6.66-44.06-7.81-46.84-30.38-.31-2.54-.44-5.11-.44-7.67-.02-70.15-.02-140.29-.02-210.44v-4.95h18.39v5.32c0,70.43,0,140.86,0,211.29,0,10.59,4.98,17.49,14.11,19.73,10.45,2.57,21.17-5.08,22.11-15.79.12-1.42.13-2.85.13-4.27,0-80.7.03-161.39-.01-242.09,0-21.42-11.43-38.18-30.39-44.97-28.67-10.26-59.43,10.54-60.61,40.99-.05,1.28-.09,2.57-.09,3.85,0,93.38-.12,186.77.07,280.15.06,30.29,14.1,52.8,41.01,66.4,46.67,23.58,103.38-10.44,104.58-62.71.66-28.78.18-57.6.19-86.4.01-55.32,0-110.64,0-165.95v-5.65h18.39v4.81c0,82.83.05,165.67-.02,248.5-.04,44.79-28.9,81.22-71.91,91.03-3.59.82-7.23,1.41-10.84,2.11h-17.11Z"/>
</svg>