<?xml version="1.0" encoding="UTF-8"?>
<svg id="Layer_1" data-name="Layer 1" xmlns="http://www.w3.org/2000/svg" viewBox="0 0 856.78 821.56">
  <defs>
    <style>
      .calendar_icon {
        stroke-width: 0px;
      }
    </style>
  </defs>
  <path class="calendar_icon" d="m0,786.58C0,641.64,0,496.7,0,351.76c1.93-.15,3.87-.44,5.8-.44,281.73-.02,563.45-.02,845.18,0,1.93,0,3.87.29,5.8.44v434.83c-1.54-.22-1.61.99-1.96,1.98-7.46,20.82-25.53,32.98-48.32,32.99-252.08.02-504.16.02-756.24,0-22.82,0-40.88-12.21-48.31-33-.35-.99-.42-2.19-1.96-1.97Z"/>
  <path class="calendar_icon" d="m856.78,156.83v145.66c-1.6.05-3.21.14-4.81.14-282.39,0-564.78,0-847.17,0-1.6,0-3.21-.09-4.81-.14v-146.73c2.4-.31,1.72-2.47,2.1-3.81,3.25-11.56,9.4-21.43,18.12-29.45,14.04-12.89,31.05-17.38,49.89-17.27,47.28.28,94.57.03,141.85.19,4.3.01,5.69-.79,5.64-5.41-.27-22.48-.6-44.98.02-67.44C218.18,12.39,235.01-.85,253.11.04c20.81,1.03,33.98,16.11,33.91,36.62-.08,21.41.05,42.83-.09,64.24-.02,3.33.61,4.52,4.3,4.51,91.36-.11,182.72-.12,274.07,0,3.93,0,4.58-1.25,4.55-4.81-.16-21.59.04-43.18-.11-64.77-.15-21.08,17.47-38.21,39.42-35.3,17.49,2.32,30.14,16.3,30.14,33.94,0,21.41.16,42.83-.12,64.24-.07,5.08.77,6.81,6.47,6.78,46.39-.29,92.78-.18,139.18-.14,4.96,0,9.91.28,14.88.67,25.91,2.04,48.97,22.16,55.28,47.27.33,1.31.07,2.93,1.78,3.54Zm-287.23,2.96c-22.58,18.31-27.24,46.37-15.78,69.53,11.81,23.86,34.57,34.48,58.89,31.17,26.84-3.65,46.41-25.03,49.18-53.55,1.58-16.28-10.76-41.98-22.55-46.55,0,5.97,0,11.83,0,17.68,0,16.59-13.69,31.95-29.77,33.41-18.77,1.71-35.2-9.7-38.77-26.72-1.68-8.03-.5-16.17-1.21-24.97Zm-352.33.24c-13.06,8.18-27.53,32.94-19.98,59.86,5.72,20.39,28.2,39.59,48.9,41.01,28.95,1.98,51.94-15.07,59.84-38.86,7.3-21.99.55-48.02-18.72-61.67-.97,7.79.45,15.55-1.12,23.25-3.05,14.95-16.52,27.05-30.79,27.95-19.74,1.24-33.06-11.08-36.89-25.59-2.21-8.36-.27-16.98-1.24-25.94Z"/>
</svg>