<?xml version="1.0" encoding="UTF-8"?>
<svg id="Layer_1" xmlns="http://www.w3.org/2000/svg" viewBox="0 0 1580.03 895.32">
<defs>
    <style>
      .closed_eye_icon {
        fill: inherit;
      }
    </style>
  </defs>
  <path class="closed_eye_icon" d="M71.6,551.25c-24.54-22.89-47.82-44.61-71.6-66.78,2.98-3.45,5.08-6.26,7.55-8.68,73.05-71.78,145.17-144.54,219.44-215.03,107.12-101.67,227.69-182.6,369.11-229.19,156.89-51.68,310.13-38.25,459.72,28.33,129.61,57.69,239.88,142.46,338.85,243.28,55.87,56.92,113.47,112.13,170.45,167.96,3.99,3.9,9.22,6.53,14.91,10.48-26.51,24.67-49.82,46.36-74.6,69.42-40.75-39.45-84.52-81.84-128.5-124.41-21.34,19.82-41.98,39-63.33,58.84,42.77,52.44,84.94,104.14,128.28,157.28-25.63,20.91-50.53,41.22-76.43,62.35-43.48-53.31-86.26-105.76-129.31-158.53-22.26,15.04-43.42,29.34-65.54,44.28,34.31,58.16,68.2,115.62,102.82,174.31-28.21,16.66-55.92,33.03-84.95,50.17-34.92-59.2-69.3-117.5-104.37-176.95-22.21,9.45-43.74,18.6-67.07,28.53,18.63,62.38,37.23,124.65,56.41,188.85-31.21,9.48-61.88,18.79-94.28,28.63-19.07-63.2-37.85-125.43-56.75-188.08-28.03,4.46-55.21,8.79-83.79,13.34v185.69h-98.83v-185.39c-28.8-4.67-56.4-9.15-84.99-13.79-18.75,62.24-37.4,124.14-56.64,188.03-31.29-9.34-61.97-18.5-94.44-28.19,18.92-63.2,37.55-125.44,56.45-188.56-22.29-9.63-43.83-18.94-66.8-28.87-34.62,58.62-69.07,116.95-104.61,177.14-28.43-16.76-56.44-33.27-85.01-50.11,34.55-58.64,68.44-116.16,102.97-174.78-21.61-14.66-42.76-29-65.5-44.42-42.78,52.44-85.58,104.92-129.46,158.71-25.36-20.69-50.27-41.01-76.47-62.38,43.16-53.06,85.55-105.17,128.37-157.81-21.41-19.87-42.02-39-63.38-58.83-43.66,42.46-87.1,84.72-128.69,125.17ZM271.42,353.97c2.14,3.05,2.84,4.44,3.89,5.47,88.81,86.47,187.28,158.89,302.11,207.34,126.38,53.32,254.41,60.69,384.79,14.69,117.42-41.43,217.8-109.9,309.49-192.52,12.07-10.88,23.6-22.35,35.71-33.86-91.98-89.34-191.75-163.52-308.79-212.2-102.17-42.49-207.55-57.77-316.69-32.53-162.28,37.54-291.87,130.34-410.52,243.62Z"/>
</svg>