<?xml version="1.0" encoding="UTF-8"?>
<svg id="Layer_1" data-name="Layer 1" xmlns="http://www.w3.org/2000/svg" viewBox="0 0 944 943.84">
  <defs>
    <style>
      .comment_icon {
        stroke-width: 0px;
      }
    </style>
  </defs>
  <path class="comment_icon" d="m470.85,0c56.63.14,110.84,7.74,163.34,25.59,54.45,18.51,104.94,44.28,149.9,80.81,35.06,28.48,65.93,60.48,91.24,97.89,30.99,45.81,51.59,95.71,61.91,150.19,5.93,31.28,8.29,62.78,5.77,94.12-5.06,62.94-22.86,122.09-54.92,177.29-21.74,37.43-48.79,69.98-80.81,98.12-11.78,10.35-14.96,19.93-14.77,34.23.66,49.48-.09,98.98.45,148.46.18,16.31-7.44,26.99-20.86,33.57-12.99,6.37-26.31,3.85-37.38-4.97-31.26-24.91-62.03-50.43-93.07-75.62-10.32-8.38-20.87-16.46-31.27-24.74-3.51-2.79-7.13-1.86-10.96-.95-32.39,7.68-64.94,13.69-98.44,14.69-12.68.38-25.48,2.19-38.21,1.63-64.82-2.85-127.98-13.77-188.11-39.26-44.68-18.94-86.26-43.16-123.57-74.17-38.44-31.95-70.36-69.66-95.78-112.82-20.66-35.09-35.77-72.41-45.08-111.99C1.25,473.97-1.88,435.06,1.08,396.2c4.01-52.65,18.15-102.96,42.7-149.96,14.69-28.11,32.18-54.3,52.86-78.57,31.82-37.35,68.28-69.22,110.14-94.46,46.71-28.16,96.54-48.9,150.27-60.38C395.12,4.7,433.31.24,470.85,0Zm4.14,71.01c-15.78.91-29.2.74-42.73,1.98-37.31,3.43-73.2,11.55-108.64,23.74-49.29,16.95-93.58,42.25-132.6,76.26-36.31,31.65-66.03,68.95-87.25,112.59-17.78,36.58-28.66,75.31-31.66,115.64-2.97,39.88,1.09,79.54,13.73,117.8,20.49,62.04,55.51,114.26,105.09,157.13,32.98,28.52,69.19,51.35,109.34,67.85,63.53,26.1,129.25,38.55,198.38,33.65,36.14-2.56,71.1-8.76,105.71-18.99,10.34-3.05,22.06-2.59,31.39,4.8,25.82,20.44,51.35,41.24,77.05,61.83,2.38,1.91,3.97,6.64,7.25,5.19,3.78-1.67,1.57-6.36,1.59-9.64.16-31.92.7-63.86-.14-95.76-.46-17.45,7.14-29.95,20.11-39.57,38.5-28.57,68.02-64.78,90.97-106.44,22.91-41.58,35.14-86.7,39.54-133.69,2.78-29.68.23-59.61-6.68-88.59-12.46-52.29-35.76-99.3-70.65-140.7-31.67-37.58-68.72-68.36-111.64-91.83-65.47-35.81-135.86-53.05-208.15-53.25Z"/>
</svg>