<?xml version="1.0" encoding="UTF-8"?>
<svg id="Layer_1" data-name="Layer 1" xmlns="http://www.w3.org/2000/svg" viewBox="0 0 474.72 474.28">
  <defs>
    <style>
      .cls-1 {
        fill: #202020;
        stroke-width: 0px;
      }
    </style>
  </defs>
  <path class="cls-1" d="M0,362c1.25-6.02,2.21-12.12,3.82-18.05,4.37-16.09,12.08-30.52,23.81-42.36,35.25-35.57,70.38-71.29,106.29-106.19,38.91-37.82,102.52-37.06,141.39.78,6.73,6.55,7.34,14.95,1.52,20.94-5.51,5.68-14.04,5.39-20.69-.7-31.49-28.87-75.63-28.22-105.89,1.84-33.56,33.33-67.14,66.65-100.28,100.4-20.8,21.17-27.33,46.78-18.5,75.15,8.84,28.39,28.83,45.76,57.96,51.25,25.58,4.82,48.07-2.73,66.58-21.06,27.9-27.63,55.5-55.56,83.44-83.14,2.76-2.73,6.84-4.89,10.64-5.63,5.84-1.15,10.47,1.94,13.29,7.21,2.67,4.99,1.87,11.23-1.99,15.57-2.46,2.77-5.19,5.3-7.81,7.93-26.01,26.02-51.9,52.16-78.08,78.01-41.85,41.32-108.13,40.31-147.72-2.11-15.22-16.31-24.25-35.57-26.98-57.76-.11-.88-.53-1.72-.81-2.57,0-6.49,0-12.99,0-19.48Z"/>
  <path class="cls-1" d="M270.07,306.89c-27.39-.43-51.1-9.77-71.01-28.51-6.83-6.42-7.55-14.94-1.93-20.94,5.57-5.95,14.21-5.7,21.02.59,30.98,28.66,75.6,28.03,105.58-1.75,33.45-33.23,66.86-66.5,99.99-100.05,20.86-21.12,27.73-46.64,19.19-75.04-8.43-28.02-27.88-45.59-56.6-51.58-25.13-5.23-47.82,1.14-66.25,19.05-28.82,28.01-56.91,56.77-85.53,84.99-2.76,2.72-6.9,4.84-10.7,5.51-5.84,1.03-10.56-2.11-13.13-7.48-2.53-5.3-1.9-10.53,1.88-15.19.48-.6,1.05-1.13,1.6-1.67,28.53-28.53,56.79-57.34,85.66-85.52,51.88-50.62,138.62-33.29,166.02,33.66,16.65,40.67,9.8,78.82-20.55,110.73-33.87,35.61-69.15,69.89-104.15,104.41-19.61,19.34-43.77,28.36-71.12,28.78Z"/>
</svg>