<?xml version="1.0" encoding="UTF-8"?>
<svg id="Layer_1" data-name="Layer 1" xmlns="http://www.w3.org/2000/svg" viewBox="0 0 567.39 730.13">
  <defs>
    <style>
      .delete_icon {
        stroke-width: 0px;
        fill: inherit;
      }
    </style>
  </defs>
  <path class="delete_icon" d="m356.14,0c6.11,3.39,12.72,6.14,18.23,10.32,8.93,6.79,13.41,16.59,14.19,27.65.6,8.47.12,17.01.12,26.12h-43.85v-19.47h-122.05v19.58h-45.56c1.18-12.3,1.24-24.2,3.7-35.57,2.72-12.56,11.87-20.69,23.61-25.74C206.61,2,208.62.97,210.66,0c48.49,0,96.99,0,145.48,0Z"/>
  <path class="delete_icon" d="m283.94,239.19c66.78,0,133.57.39,200.34-.23,21.21-.2,27.12,12.3,25.4,28.49-3.41,32.1-5.5,64.33-8.12,96.51-2.7,33.13-5.41,66.25-8.08,99.38-2.56,31.71-5.07,63.42-7.63,95.13-2.66,32.89-5.32,65.78-8.05,98.67-.96,11.58-1.57,23.23-3.34,34.69-3.39,22.01-21.81,38.12-43.91,38.16-97.91.17-195.83.18-293.74,0-22.96-.04-41.96-17.12-44.39-40.16-2.91-27.62-4.86-55.33-7.16-83.01-2.72-32.89-5.38-65.78-8.04-98.67-2.58-31.95-5.1-63.9-7.68-95.84-2.64-32.65-5.32-65.31-7.98-97.96-1.46-17.98-3.05-35.96-4.32-53.96-.8-11.37,7.11-20.14,18.53-21.02,2.84-.22,5.7-.19,8.55-.19,66.54,0,133.09,0,199.63,0Zm-22,247.72c0,56.78,0,113.57,0,170.35,0,2.38-.12,4.77.12,7.12,1.02,10.32,8.88,18.38,19.27,19.9,9.25,1.36,19.47-4.47,22.63-13.67,1.43-4.16,1.87-8.83,1.88-13.27.1-113.57.08-227.13.04-340.7,0-3.3-.21-6.67-.86-9.9-2.5-12.41-14.92-19.78-27.05-16.23-10.4,3.05-16,11.03-16.01,23.2-.03,57.73-.01,115.47-.02,173.2Zm-129.96-173c.28,4.36.45,6.96.61,9.57,2.21,34.84,4.47,69.69,6.62,104.53,2.12,34.38,4.08,68.76,6.19,103.14,2.66,43.15,5.5,86.28,8.07,129.43.85,14.28,10.32,24.5,22.88,23.88,13.52-.66,22.05-11.95,20.92-26.9-1.43-18.95-2.45-37.92-3.6-56.89-2.07-34.14-4.08-68.28-6.17-102.42-2.7-44.1-5.41-88.19-8.19-132.28-1.21-19.2-2.43-38.39-4.03-57.56-.74-8.9-6.26-14.43-14.46-17.68-12.06-4.78-30.83,4.48-28.82,23.17Zm302.97,4.53c0-1.26.1-4.59-.02-7.91-.43-11.67-9.4-20.67-20.91-21.07-11.25-.39-21.54,8.35-22.26,19.72-3,47.4-5.76,94.82-8.59,142.24-2.21,36.98-4.42,73.96-6.62,110.95-1.95,32.95-4.06,65.9-5.73,98.87-.64,12.68,9.02,22.76,21.16,23.24,11.56.46,21.84-8.85,22.6-21.14,2.09-33.66,3.92-67.33,5.87-101,2.03-35.09,4.06-70.18,6.15-105.27,2.71-45.52,5.47-91.03,8.34-138.62Z"/>
  <path class="delete_icon" d="m283.22,195.28c-86.74,0-173.49,0-260.23,0-19.62,0-27.05-10.39-20.85-29.11,3.95-11.92,7.78-23.88,11.87-35.75,5.09-14.8,14.83-21.89,30.46-21.9,159.47-.05,318.93-.05,478.4,0,15.71,0,25.09,6.93,30.33,22,4.27,12.31,8.42,24.66,12.47,37.04,5.52,16.88-2.32,27.7-20.06,27.71-87.46.02-174.91.01-262.37.01Z"/>
</svg>