<?xml version="1.0" encoding="UTF-8"?>
<svg 
    viewBox="0 0 57 80" 
    xmlns="http://www.w3.org/2000/svg"
>
    <defs>
        <style>
            .document_icon {
                fill=inherit;
            }
        </style>
    </defs>
    <path class="document_icon" d="M28.3201 62.3108C34.4502 62.3108 40.5813 62.3108 46.7114 62.3108C46.9737 62.3108 47.2863 62.2315 47.4871 62.3459C47.7525 62.4974 48.0928 62.7984 48.0999 63.0437C48.1071 63.291 47.7874 63.6137 47.5322 63.7806C47.3406 63.9064 47.0239 63.8528 46.7626 63.8528C34.443 63.8548 22.1235 63.8548 9.80492 63.8528C9.5436 63.8528 9.22696 63.9095 9.0343 63.7848C8.77811 63.6188 8.45737 63.2983 8.46146 63.0499C8.46659 62.8035 8.80271 62.4984 9.06709 62.3459C9.2659 62.2304 9.57947 62.3098 9.84181 62.3098C16.0016 62.3098 22.1614 62.3098 28.3212 62.3098L28.3201 62.3108Z" />
    <path class="document_icon" d="M28.2864 69.5474C22.1553 69.5474 16.0252 69.5474 9.89412 69.5474C9.60207 69.5474 9.27312 69.6154 9.02923 69.5031C8.78227 69.3887 8.45435 69.0815 8.46357 68.8723C8.47587 68.6002 8.73513 68.26 8.98414 68.1034C9.20037 67.9673 9.54981 68.0343 9.84084 68.0343C22.1317 68.0323 34.4226 68.0323 46.7135 68.0323C46.8887 68.0323 47.064 68.025 47.2392 68.0302C47.7772 68.0446 48.1656 68.2559 48.1338 68.862C48.1031 69.4351 47.6932 69.5505 47.2054 69.5495C44.0235 69.5464 40.8406 69.5474 37.6588 69.5474C34.5353 69.5474 31.4109 69.5474 28.2874 69.5474H28.2864Z" />
    <path class="document_icon" d="M28.3816 33.5344C34.5383 33.5344 40.695 33.5344 46.8518 33.5344C47.0844 33.5344 47.3662 33.4643 47.5394 33.5694C47.7802 33.7147 48.0794 33.9868 48.0948 34.2218C48.1101 34.461 47.8622 34.8032 47.6347 34.9454C47.4143 35.0835 47.0721 35.0475 46.7831 35.0475C34.4697 35.0516 22.1562 35.0505 9.84383 35.0505C9.75672 35.0505 9.6686 35.0505 9.58149 35.0495C9.03837 35.0361 8.45324 35.0258 8.43992 34.2837C8.4266 33.5127 9.02095 33.5344 9.56305 33.5344C13.123 33.5344 16.683 33.5344 20.242 33.5344C22.9555 33.5344 25.6691 33.5344 28.3826 33.5344H28.3816Z" />
    <path class="document_icon" d="M28.2669 44.9897C34.3949 44.9897 40.5239 44.9897 46.652 44.9897C46.944 44.9897 47.2842 44.9114 47.5138 45.0341C47.7751 45.1753 48.0702 45.4855 48.103 45.7525C48.1286 45.9627 47.8212 46.3018 47.5804 46.4317C47.3478 46.5575 47.0116 46.5039 46.7216 46.5049C34.4062 46.5069 22.0907 46.5069 9.7752 46.5049C9.48622 46.5049 9.14293 46.5492 8.92261 46.4131C8.69306 46.2719 8.44405 45.9266 8.45942 45.6886C8.47479 45.4525 8.77197 45.1546 9.01791 45.0371C9.2577 44.9217 9.58972 44.9918 9.88177 44.9918C16.0098 44.9908 22.1388 44.9918 28.2669 44.9918V44.9897Z" />
    <path class="document_icon" d="M28.2413 58.09C22.143 58.09 16.0447 58.09 9.94639 58.089C9.62667 58.089 9.25366 58.1642 9.00054 58.0271C8.74538 57.89 8.48099 57.5386 8.46255 57.2654C8.44922 57.0593 8.78124 56.748 9.02821 56.6305C9.27108 56.5151 9.60002 56.5759 9.89208 56.5759C22.1471 56.5738 34.4021 56.5718 46.6571 56.5831C47.2484 56.5831 48.1297 56.346 48.1092 57.3469C48.0887 58.325 47.2207 58.0807 46.6233 58.0818C40.4963 58.0941 34.3683 58.089 28.2403 58.089L28.2413 58.09Z" />
    <path class="document_icon" d="M20.7513 40.7669C17.1032 40.7669 13.4551 40.769 9.80697 40.7669C9.54464 40.7669 9.24131 40.8277 9.03124 40.7174C8.78325 40.5865 8.4502 40.2938 8.4584 40.0825C8.46865 39.8083 8.72689 39.4641 8.97693 39.3033C9.19007 39.1652 9.54156 39.2281 9.83157 39.227C17.0397 39.2239 24.2488 39.225 31.4569 39.225C31.5737 39.225 31.6906 39.2239 31.8074 39.225C32.3649 39.2301 32.9305 39.292 32.9254 40.0207C32.9192 40.77 32.331 40.7679 31.7838 40.7679C28.107 40.7669 24.4292 40.7679 20.7524 40.7679L20.7513 40.7669Z" />
    <path class="document_icon" d="M20.6243 52.3635C17.0356 52.3635 13.448 52.3645 9.85928 52.3625C9.56825 52.3625 9.23521 52.4222 8.99849 52.3006C8.7546 52.1759 8.46562 51.8698 8.45537 51.6327C8.44512 51.3946 8.70746 51.0596 8.9411 50.9215C9.16552 50.7886 9.50574 50.8329 9.79472 50.8329C17.0592 50.8287 24.3226 50.8298 31.5871 50.8318C31.8484 50.8318 32.1712 50.771 32.3557 50.8988C32.6047 51.0699 32.8793 51.3895 32.8957 51.6595C32.908 51.8729 32.5842 52.1769 32.3393 52.3119C32.1333 52.4253 31.8269 52.3625 31.5646 52.3625C27.9185 52.3645 24.2714 52.3635 20.6253 52.3645L20.6243 52.3635Z" />
    <path class="document_icon" d="M18.9038 18.3106C15.8715 18.3106 12.8393 18.3106 9.80807 18.3096C9.54574 18.3096 9.22909 18.3797 9.03643 18.2581C8.78025 18.0973 8.4595 17.7747 8.46667 17.5314C8.47384 17.2861 8.81611 16.9985 9.07537 16.8326C9.24446 16.7244 9.52934 16.7934 9.76196 16.7934C15.8264 16.7924 21.8899 16.7924 27.9544 16.7934C28.188 16.7934 28.4709 16.7182 28.643 16.8233C28.9269 16.9975 29.14 17.2892 29.3829 17.5324C29.1257 17.7901 28.8982 18.222 28.6072 18.2694C27.9257 18.3817 27.2135 18.3106 26.5136 18.3106C23.9773 18.3106 21.4411 18.3106 18.9048 18.3106H18.9038Z" />
    <path class="document_icon" d="M17.2619 11.9645C14.8128 11.9645 12.3636 11.9645 9.91549 11.9635C9.62446 11.9635 9.2863 12.0346 9.0547 11.9109C8.79442 11.7728 8.46444 11.4481 8.46854 11.21C8.47264 10.9616 8.80876 10.6792 9.05983 10.4916C9.19509 10.3906 9.45538 10.4494 9.65828 10.4494C14.7605 10.4483 19.8617 10.4494 24.964 10.4504C25.1679 10.4504 25.4272 10.3916 25.5624 10.4927C25.8125 10.6792 26.1507 10.9647 26.1507 11.209C26.1507 11.4522 25.8207 11.7738 25.5583 11.914C25.3267 12.0367 24.9886 11.9625 24.6976 11.9625C22.2197 11.9645 19.7418 11.9635 17.263 11.9635L17.2619 11.9645Z" />
    <path class="document_icon" d="M56.5725 14.9969C56.5725 14.931 56.5643 14.866 56.5479 14.8052C56.4803 14.5568 56.4475 14.5898 56.0396 14.294C56.0263 14.2847 56.0089 14.2857 55.9915 14.2826C51.4323 9.81448 46.8824 5.33603 42.3592 0.8318C41.771 0.245323 41.1828 -0.00204866 40.3599 1.27711e-05C27.3947 0.0195964 14.4306 0.0134121 1.4654 0.0144428C0.111698 0.0144428 0.00204951 0.122668 0.00204951 1.4492C0.00102475 27.1779 0 52.9056 0 78.6333C0 79.9207 0.0717327 79.999 1.32705 79.999C19.2838 80 37.2426 80.001 55.2004 79.999C56.4413 79.999 56.5704 79.8722 56.5715 78.6508V78.389C56.5715 76.8615 56.5725 74.5383 56.5725 71.6677V15.0753H56.5674C56.5715 15.0495 56.5725 15.0227 56.5725 14.9969ZM41.9493 3.00764C42.0261 2.98703 42.103 2.96538 42.1788 2.94477C46.0954 6.78006 50.012 10.6133 54.0752 14.5908H41.9493V3.00764ZM55.1245 78.39H1.5689C1.55455 78.1035 1.52483 77.7953 1.52483 77.4871C1.52278 52.4964 1.52586 27.5057 1.50946 2.51496C1.50946 1.80273 1.67752 1.55949 2.42559 1.56155C14.8056 1.58319 27.1846 1.58216 39.5637 1.56258C40.2513 1.56155 40.4665 1.75223 40.4552 2.45415C40.3876 6.53578 40.3619 10.6164 40.3281 14.698C40.3179 16.0967 40.4316 16.2049 41.8068 16.2049C45.9233 16.2059 50.0407 16.2059 54.1561 16.2059H55.1215V78.389L55.1245 78.39Z" />
    <path class="document_icon" d="M56.8001 70.6328V77.2603H56.7991C56.7991 75.7544 56.8001 73.4632 56.8001 70.6328Z" />
</svg>
