<?xml version="1.0" encoding="UTF-8"?>
<svg id="Layer_1" data-name="Layer 1" xmlns="http://www.w3.org/2000/svg" viewBox="0 0 445.25 443.89">
  <defs>
    <style>
      .edit_icon {
        stroke-width: 0px;
        fill: inherit;
      }
    </style>
  </defs>
  <path class="edit_icon" d="m222.36,443.88c-52.85,0-105.7.03-158.56-.01-30.3-.02-55.29-19.9-62.24-49.31-2.1-8.87-1.47-17.88-1.48-26.86-.05-33.75-.03-67.5-.02-101.25,0-33.38.02-66.76.03-100.14,0-30.32-.03-60.64.01-90.96.04-30.49,23.22-57.56,53.44-61.31,11.61-1.44,23.48-.92,35.23-.98,26.14-.12,52.29-.03,78.44-.03,16.5,0,33.01-.05,49.51,0,7.02.02,12.16,3.44,14.44,9.29,2.15,5.5.7,11.73-3.68,15.81-3.26,3.04-7.23,3.89-11.55,3.89-30.97-.02-61.94-.02-92.91-.02-19.75,0-39.5-.04-59.25.02-19.93.06-34.84,14.92-34.85,34.83-.03,101.07-.03,202.15,0,303.22,0,19.91,15.18,34.95,35.14,34.95,105.71,0,211.41,0,317.12,0,20.09,0,35.15-15.05,35.16-35.21.03-47.66,0-95.32.02-142.99,0-7.84,4.02-13.33,10.96-15.12,8.99-2.31,17.83,4.35,17.84,13.6.04,36.72.02,73.44.02,110.15,0,11.13-.08,22.25.05,33.38.36,31.12-19.65,56.79-49.99,63.6-4.74,1.06-9.74,1.36-14.62,1.37-52.76.09-105.52.06-158.28.06Z"/>
  <path class="edit_icon" d="m441.83,68.55c.33,4.72-1.96,8.28-5.17,11.47-17.46,17.41-34.91,34.83-52.35,52.27-50.02,50.01-100.03,100.02-150.05,150.03-13.11,13.11-26.16,26.28-39.42,39.24-2.17,2.12-5.08,3.83-7.97,4.8-25.96,8.8-52.04,17.23-77.96,26.15-10.4,3.58-18.63-2.67-19.84-9.45-.54-3.06-.44-6.57.51-9.5,8.57-26.31,17.33-52.57,26.25-78.77,1-2.95,2.87-5.89,5.08-8.11,53.85-54.02,107.8-107.94,161.74-161.88,26.41-26.41,52.83-52.82,79.26-79.23,7.43-7.42,15.74-7.43,23.12-.04,17.3,17.3,34.6,34.62,51.9,51.92,3.07,3.06,5.17,6.53,4.88,11.1Zm-122.73,20.74c-3.8,3.82-7.63,7.7-11.48,11.55-54.42,54.41-108.86,108.81-163.25,163.25-1.12,1.12-2.04,2.64-2.56,4.15-3.73,10.86-7.34,21.76-10.98,32.66-1.66,4.96-3.3,9.92-5.05,15.21.95-.16,1.49-.19,1.98-.35,15.55-5.18,31.11-10.35,46.63-15.6,1.18-.4,2.35-1.14,3.24-2.02,18.32-18.26,36.59-36.56,54.88-54.84,36.84-36.84,73.69-73.67,110.53-110.51,3.31-3.31,6.58-6.67,9.5-9.63-11.26-11.39-22.25-22.52-33.45-33.85Zm21.5-20.78c10.94,10.96,22.04,22.09,32.82,32.88,11-10.95,22.12-22.02,33.13-32.97-10.91-10.96-21.95-22.04-32.86-33-11.1,11.1-22.22,22.22-33.08,33.08Z"/>
</svg>