<?xml version="1.0" encoding="UTF-8"?>
<svg id="Layer_1" data-name="Layer 1" xmlns="http://www.w3.org/2000/svg" viewBox="0 0 732.28 1313.79">
  <defs>
    <style>
      .geo_location_icon {
        fill: inherit
        stroke-width: 0px;
      }
    </style>
  </defs>
  <g>
    <path class="geo_location_icon" d="m368.4,1171.96c-3.78-4.99-6.93-8.42-9.27-12.34-73.77-123.28-145.28-247.84-209.38-376.48-50.44-101.23-99.06-203.45-133.32-311.47C-47.77,269.23,82.91,49.6,291.06,7.65c183.66-37.02,360.34,63.19,421.7,239.59,11.54,33.18,16.64,67.51,18.9,102.79,4.65,72.58-17.79,138.81-43.11,204.71-50.03,130.23-113.38,254.13-180.59,376.06-41.95,76.1-86.16,150.96-129.44,226.33-2.67,4.65-6.05,8.9-10.12,14.83Zm265.94-800.04c.12-147.5-120.45-269.21-266.95-269.5-149.62-.29-270.77,119.76-271.27,268.8-.5,150.44,120.08,270.93,271.23,271.02,147.16.09,266.87-121.12,266.99-270.32Z"/>
    <path class="geo_location_icon" d="m358.65,511.97c-81.5-.3-144.28-64.08-143.87-146.16.4-80.61,63.99-142.22,146.51-141.96,78.19.25,141.92,65.08,141.63,144.08-.29,79.95-64.78,144.33-144.28,144.04Z"/>
  </g>
  <ellipse class="geo_location_icon" cx="373.09" cy="1266.61" rx="167.29" ry="47.18"/>
</svg>