<?xml version="1.0" encoding="UTF-8"?>
<svg id="Layer_1" data-name="Layer 1" xmlns="http://www.w3.org/2000/svg" viewBox="0 0 583.74 503.26">
  <defs>
    <style>
      .interest_icon_01 {
        fill: inherit;
      }

      .interest_icon_01, .interest_icon_02 {
        stroke-width: 0px;
        stroke: none;
      }
    </style>
  </defs>
  <path class="interest_icon_01" d="m151.01.05c41.11.41,76.54,14.76,106.02,43.51,11.04,10.77,21.89,21.75,32.72,32.73,1.7,1.72,2.57,1.86,4.36.05,12.1-12.21,24.03-24.6,36.58-36.34,21.83-20.43,47.7-32.98,77.25-37.89,76.29-12.66,145.99,33.06,168.43,101.63,4.22,12.88,6.61,26.07,7.21,39.66,1.87,42.85-12.04,79.79-40.91,111.32-2.13,2.33-3.28,2.72-5.74.18-10.58-10.92-21.4-21.61-32.21-32.3-1.6-1.58-2.09-2.45-.26-4.41,51.66-55.3,24.93-145.23-48.73-162.75-34.09-8.11-64.88.13-90.32,24.35-24.18,23.01-47.39,47.04-70.92,70.72-2.02,2.03-2.97,2.11-5.04.02-22.67-22.84-45.42-45.58-68.21-68.29-22.16-22.08-48.96-31.74-80.05-29.14-43.85,3.68-81.19,39.17-87.3,82.93-4.6,32.95,4.85,61.47,28.3,84.99,75.16,75.37,150.47,150.59,225.78,225.8,2.05,2.05,2.3,3.06.08,5.22-11.04,10.78-21.9,21.73-32.74,32.7-1.57,1.59-2.35,1.73-4.04.04-76.15-76.25-152.45-152.35-228.49-228.71C20.91,234.14,7.68,207.47,2.3,176.88-10.88,102.02,33.73,28.47,107.79,6.2,121.84,1.98,136.24-.24,151.01.05Z"/>
  <path class="interest_icon_02" d="m402.37,423.87c-12.23,0-24.46-.08-36.68.06-2.55.03-3.06-.71-3.04-3.13.12-15.42.13-30.85,0-46.27-.02-2.55.7-3.04,3.11-3.03,24.24.1,48.47,0,72.71.13,2.93.01,3.66-.76,3.65-3.68-.13-24.13-.02-48.25-.14-72.38-.01-2.78.69-3.42,3.42-3.39,15.2.14,30.41.15,45.61,0,2.86-.03,3.35.84,3.33,3.49-.11,24.02-.02,48.03-.13,72.05-.01,2.94.61,3.95,3.79,3.93,24.13-.14,48.25-.04,72.38-.13,2.5,0,3.32.49,3.3,3.18-.14,15.2-.15,30.41,0,45.61.03,2.82-.52,3.67-3.54,3.65-24.01-.15-48.03-.03-72.05-.15-2.93-.01-3.92.58-3.9,3.75.14,24.13.04,48.25.14,72.38,0,2.5-.46,3.35-3.18,3.33-15.42-.14-30.85-.12-46.27-.02-2.34.02-2.9-.64-2.89-2.93.08-24.35,0-48.69.12-73.04.01-2.69-.58-3.51-3.38-3.47-12.12.16-24.24.07-36.35.07Z"/>
</svg>