<?xml version="1.0" encoding="UTF-8"?>
<svg id="Layer_1" data-name="Layer 1" xmlns="http://www.w3.org/2000/svg" viewBox="0 0 494.31 414.36">
  <defs>
    <style>
      .login_icon {
        fill: inherit;
        stroke-width: 0px;
      }
    </style>
  </defs>
  <path class="login_icon" d="m287.12,0C193.83,0,114.74,61.98,88.88,146.93h42.48c24.22-62.41,84.91-106.76,155.77-106.76,92.09,0,167.01,74.93,167.01,167.01s-74.93,167.01-167.01,167.01c-70.85,0-131.54-44.35-155.77-106.76h-42.48c25.86,84.95,104.95,146.93,198.24,146.93,114.24,0,207.18-92.95,207.18-207.18S401.36,0,287.12,0Z"/>
  <polygon class="login_icon" points="0 227.27 0 187.1 272.22 187.1 291.59 206.47 291.59 207.9 272.22 227.27 0 227.27"/>
</svg>