<?xml version="1.0" encoding="UTF-8"?>
<svg id="Layer_1" data-name="Layer 1" xmlns="http://www.w3.org/2000/svg" viewBox="0 0 958 850.37">
  <defs>
    <style>
      .media_icon {
        fill: #040404;
        stroke-width: 0px;
      }
    </style>
  </defs>
  <path class="media_icon" d="m491.57,850.33c-125.33,0-250.65.04-375.98-.03-31.8-.02-60.29-9.71-84.16-31.01C10.93,800.99.06,777.85.05,750.14,0,539.61-.05,329.08.07,118.54.11,57.1,55.38-.41,119.25,0c237.57,1.55,475.16.61,712.74.62,69.36,0,125.99,56.78,125.99,126.29,0,206.47,0,412.95.03,619.42,0,10.84-.62,21.55-2.43,32.29-7.66,45.29-37.89,71.56-83.96,71.64-108.65.19-217.29.06-325.94.06h-54.1ZM53.59,651.72c3.43-1.78,4.64-2.24,5.67-2.96,120.69-84.26,241.45-168.44,361.91-253.03,8.89-6.24,13.33-5.43,20.5,2.49,45.05,49.8,90.86,98.93,136.04,148.62,5.96,6.55,9.1,7.75,16.5,1.36,38.86-33.6,78.73-66.03,117.36-99.88,10.09-8.84,15.97-9.23,26.29-.53,52.03,43.83,104.76,86.83,157.33,130.02,2.45,2.01,4.18,6.33,8.82,4.19.13-1.4.36-2.74.36-4.09.02-151.47.16-302.94-.07-454.41-.06-37.35-33.6-69.27-71.99-69.28-238.48-.06-476.95.07-715.43-.21-19.29-.02-33.85,7.73-45.86,21.64-12.95,15-17.64,32.56-17.61,52.41.31,169.95.18,339.91.18,509.86v13.81Zm437.57,145.23c121.75,0,243.51,0,365.26-.02,7.21,0,14.42-.25,21.63-.5,11.28-.4,18.41-6.73,22.32-16.73,2.97-7.6,3.85-15.7,3.85-23.89.02-32.02-.11-64.04.33-96.05.11-7.9-2.25-13.04-8.53-18.16-54.17-44.11-108.13-88.48-161.77-133.23-6.85-5.72-10.56-6.23-17.58-.18-42,36.18-84.7,71.56-126.69,107.75-7.54,6.5-11.09,6.12-17.73-1.21-46.31-51.13-93.32-101.62-139.64-152.74-6.73-7.42-10.83-8.12-19.23-2.24-110.28,77.24-220.37,154.75-331.77,230.35-22.13,15.02-31.46,30.42-28.54,56.72,2.17,19.54,9.89,32.9,26.86,41.94,14.11,7.52,29.22,8.23,44.62,8.22,122.21-.04,244.41-.02,366.62-.02Z"/>
  <path class="media_icon" d="m649.59,342.49c-53.8-.02-97.31-43.14-97.53-96.66-.22-54.05,43.75-98.16,97.77-98.08,54.13.08,97.65,44.03,97.35,98.32-.29,53.69-43.56,96.43-97.59,96.42Zm44.13-96.88c.17-23.96-19.13-43.94-43-44.52-24.42-.59-44.78,19.28-44.92,43.86-.14,24.68,19.87,44.84,44.26,44.59,23.88-.24,43.49-19.98,43.66-43.94Z"/>
</svg>