<?xml version="1.0" encoding="UTF-8"?>
<svg xmlns="http://www.w3.org/2000/svg" viewBox="0 0 383.49 240.93">
  <defs>
    <style>
      .megaphone_icon_01 {
        fill: inherit;
      }

      .megaphone_icon_01, .megaphone_icon_02 {
        stroke-width: 0px;
      }

      .megaphone_icon_02 {
        fill: inherit;
      }
    </style>
  </defs>
  <path class="megaphone_icon_02" d="m116.12,240.9c-13.04,0-25.63-.02-38.21.03-1.52,0-2.15-.78-2.78-1.97-10.82-20.36-21.67-40.71-32.51-61.06-5.6-10.52-11.2-21.03-16.74-31.57-.76-1.45-1.78-2.06-3.28-1.75-10.05,2.12-14.35-3.93-17.75-11.92-7.55-17.72-6.25-34.67,3.66-51.08,2.14-3.54,4.85-5.57,9.37-5.41,14.73.5,29.49.14,44.11-1.54,22.09-2.55,43.8-7.13,65.11-13.65,44.4-13.6,85.64-33.66,123.97-59.75.5-.34,1.01-.68,1.81-1.21v220.62c-52.12-34.81-108.2-60.1-170.92-71.38,11.47,30.78,22.75,61.01,34.17,91.66Z"/>
  <path class="megaphone_icon_01" d="m268.87,78.99c21.53.55,31.12,23.33,26.79,39.69-2.74,10.36-8.6,18.33-19.1,22.07-7.4,2.63-7.67,2.38-7.68-5.42-.01-18.68,0-37.35,0-56.34Z"/>
  <path class="megaphone_icon_01" d="m361.12,26.52c.33,3.56-2.03,5.76-4.71,7.32-16.33,9.54-32.72,18.98-49.18,28.29-4.31,2.44-7.64,1.85-10.55-1.24-2.55-2.71-3.05-5.87-1.5-9.27.8-1.77,2.25-2.93,3.9-3.89,16.28-9.36,32.51-18.8,48.84-28.05,6.71-3.8,13.3-.3,13.19,6.84Z"/>
  <path class="megaphone_icon_02" d="m346.12,117.5c-9.48,0-18.95.06-28.43-.02-5.32-.05-8.93-3.55-8.97-8.41-.04-4.49,3.68-8.09,8.87-8.12,19.21-.09,38.42-.13,57.63,0,5.84.04,7.96,3.86,8.27,8.59.29,4.58-3.47,7.84-8.55,7.87-9.6.06-19.2.02-28.8.02v.07Z"/>
  <path class="megaphone_icon_01" d="m361.13,192.07c.04,6.43-6.39,10.21-12.31,7.02-7.08-3.82-14.03-7.91-21-11.94-9.54-5.51-19.04-11.09-28.59-16.58-3.46-1.99-5.44-4.86-4.78-8.83.56-3.41,2.89-5.6,6.25-6.66,2.5-.79,4.7.21,6.67,1.33,16.49,9.39,32.94,18.86,49.34,28.4,2.68,1.56,4.39,3.97,4.42,7.27Z"/>
</svg>