<?xml version="1.0" encoding="UTF-8"?>
<svg id="Layer_1" data-name="Layer 1" xmlns="http://www.w3.org/2000/svg" viewBox="0 0 606.48 605.79">
  <defs>
    <style>
      .cls-1 {
        fill: #706961;
        stroke-width: 0px;
      }
    </style>
  </defs>
  <path class="cls-1" d="m606.48,449.85h-58.82v77.54h-19.47v-97.22c1.71-.09,3.46-.25,5.21-.25,15.73-.02,31.46-.2,47.18.09,4.78.09,6.11-1.21,6.1-6.04-.15-71.95-.08-143.91-.13-215.86,0-13.77-.51-27.54-.48-41.31.06-27.45.32-54.9.5-82.35.01-1.82,0-3.65,0-5.86h-135.95v19.38c38.83-2.14,70.78,11.29,94.7,41.89,15.17,19.42,24.63,42.19,22.7,66.55-6.2,78.18-66.91,110.36-117.47,105.8,0,6.72,0,13.38,0,20.05,0,18.15-.09,36.31.04,54.46.02,3.46-1.41,4.19-4.49,4.15-9.99-.13-19.99.11-29.98-.13-3.81-.09-5.44.9-5.36,4.95.2,9.82.17,19.65.02,29.48-.06,3.74,1.38,4.78,5.03,4.74,15.99-.18,31.98-.08,47.97-.08,1.79,0,3.57,0,5.59,0v58.58h-19.57v-38.27h-38.65c-.1,2.23-.52,4.53-.26,6.75,1.49,12.55-4.23,22.28-11.73,31.52-5.33,6.57-10.3,13.44-15.22,20.32-1.19,1.66-2.12,3.91-2.16,5.91-.21,10.47-.1,20.95-.1,31.98h18.87v58.83h-194.35v-58.23h18.96c0-4.14,0-7.73,0-11.32,0-5.33-.35-10.69.09-15.98.54-6.6-2.01-11.63-6.01-16.59-6.49-8.04-12.67-16.36-18.6-24.83-3.6-5.14-4.62-11.26-4.64-17.5-.01-3.49,0-6.97,0-10.85h-39.14v38.59c-5.97,0-11.27.2-16.53-.15-1.17-.08-3.16-2.06-3.17-3.18-.21-17.49-.12-34.98-.18-52.46-.01-3.48,2.37-2.99,4.48-3,16.32-.05,32.65-.23,48.96,0,4.47.07,5.7-1.28,5.56-5.65-.32-9.65-.22-19.32-.04-28.98.06-3.52-1.2-4.66-4.65-4.59-8.99.18-17.99.06-26.98.05q-7.41,0-7.41-7.18c0-21.82-.01-43.64-.02-65.46,0-1.78,0-3.56,0-5.27-7.43-.36-14.39,0-21.09-1.18-10.27-1.8-20.74-3.67-30.44-7.33-12.21-4.61-22.93-12.19-32.47-21.31-16.84-16.1-27.64-35.65-31.67-58.42-3.43-19.4-1.82-38.57,5.44-57.34,10.64-27.49,29.12-47.13,55.62-59.67,16.01-7.58,32.78-10.74,50.38-9.61,3.4.22,4.48-1.14,4.37-4.29-.13-3.49-.26-7.01.03-10.49.35-4.27-1.45-5.33-5.5-5.31-30.98.16-61.96.11-92.93.12-10.99,0-21.98.25-32.96-.1-4.71-.15-5.83,1.37-5.82,5.89.15,88.78.15,177.55.17,266.33,0,24.65.12,49.3-.12,73.95-.05,4.75,1.48,5.87,5.98,5.8,16.15-.24,32.31-.03,48.46-.12,3.02-.02,4.62.59,4.61,4.09-.1,30.65-.06,61.29-.09,91.94,0,.46-.2.93-.37,1.63h-19.38v-77.55H.74c-.33-1-.7-1.6-.69-2.2.12-9.63.34-19.26.42-28.89.02-2.61-.47-5.22-.47-7.83C0,295.57.01,180.15.03,64.72q0-6.57,6.52-6.57c14.32,0,28.65.11,42.97,0,30.4-.25,60.8-.67,91.2-.86,5.2-.03,10.41.69,16.05,1.09V.11h5.64c94.1,0,188.2.04,282.31-.11,4.95,0,6.06,1.51,5.97,6.19-.34,16.54-.24,33.1-.3,49.64,0,.62.16,1.24.31,2.26h155.79v391.75ZM176.22,20.18c0,2.39,0,4.19,0,6,0,40.62,0,81.24-.02,121.85-.01,54.62-.06,109.25-.02,163.87.01,18.15.31,36.29.29,54.44,0,3.66.62,5.07,4.89,4.98,13.81-.31,27.63.08,41.45.06,38.13-.03,76.25-.13,114.38-.22,1.43,0,2.86-.22,4.64-.36,0-8.13.07-15.92-.08-23.7-.02-1.11-.95-2.39-1.8-3.25-5.99-6.1-12.12-12.07-18.11-18.18-8.72-8.88-10.78-19.76-7.25-31.13,6.41-20.69,30.89-26.76,46.77-16.03,13.06,8.82,24.9,19.45,37.23,29.35,5.41,4.34,10.58,9.09,11.02,16.59.64,10.93,1.03,21.88,1.17,32.82.18,13.79.03,13.63,13.97,13.88,4.47.08,6.03-.96,6.02-5.78-.22-113.57-.27-227.15-.36-340.72,0-1.43-.18-2.86-.28-4.47h-253.91Zm153.21,370.64c-11.04,0-20.84.21-30.63-.09-4.4-.14-5.34,1.63-5.29,5.57.18,12.98-.05,25.98.17,38.96.06,3.63-1.19,4.76-4.59,4.58-3.49-.18-7.01-.25-10.49.02-3.64.29-4.54-1.27-4.48-4.64.17-9.99.07-19.99.08-29.98,0-14.74,0-14.64-14.78-14.5-3.65.03-5.07,1.17-4.99,4.89.22,9.99.21,19.98.23,29.97.03,14.27,0,14.07-14.37,14.3-4.61.07-5.6-1.57-5.51-5.77.28-12.81.29-25.64.16-38.46-.02-1.6-1.41-4.49-2.33-4.56-5.55-.43-11.15-.21-17.29-.21,0,24.03-.09,47.32.12,70.61.02,2.62,1.26,5.58,2.8,7.78,4.1,5.87,8.81,11.31,13.02,17.1,7.05,9.69,14.89,18.87,13.65,32.36-.84,9.19-.16,18.51-.16,27.72h116.96c0-10.56.11-20.71-.04-30.85-.11-7.6,2.59-14.18,6.97-20.11,6.33-8.58,13.17-16.79,19.23-25.55,2.12-3.06,3.63-7.27,3.65-10.96.25-41.31.2-82.61.05-123.92,0-2.66-.66-5.99-2.31-7.83-3.67-4.08-8.08-7.53-12.36-11.03-8.57-7.02-17.15-14.05-25.95-20.78-4.26-3.26-12.71-2.02-15.81,1.74-3.38,4.11-2.63,10.61,1.72,15.04,7.43,7.57,14.95,15.05,22.18,22.8,1.46,1.57,2.49,4.18,2.53,6.33.23,12.82-.07,25.65.21,38.47.1,4.45-1.28,7.36-4.59,10.41-12.94,11.9-22.97,25.59-23.86,44.07-.22,4.48-2.3,6.03-6.7,5.57-3.46-.36-7,.11-10.48-.19-1.05-.09-2.84-1.5-2.84-2.3.01-3.96.18-7.98.9-11.87,2.25-12.28,7.08-23.54,15.21-34.68Zm-172.5-253.75c0-4.57-.13-9.68.05-14.77.12-3.38-1.28-5.17-4.57-4.97-6.93.41-13.91.62-20.75,1.71-16.27,2.59-30.45,9.77-42.79,20.66-12.88,11.37-21.77,25.42-26.22,41.86-2.73,10.11-4.79,20.48-3.14,31.31,1.97,12.95,5.38,25.27,12.11,36.67.42-.36,1.01-.71,1.4-1.22.38-.5.65-1.14.83-1.75,3.11-10.68,9.12-19.82,17.02-27.22,6.59-6.17,14.71-10.72,22.14-16,1.75-1.24,4.76-2.05,2.5-5.1-10.01-13.57-10.18-27.83-2.13-42.07,5.56-9.84,13.95-16.71,25.65-18.16,5.67-.7,11.43-.64,17.92-.95Zm293.78.64c16.98-2.65,31.23,1.4,40.93,15.49,10.96,15.91,9.22,32.17-1.46,48.18,21.97,9.79,36.71,25.99,44.54,49.6,19.79-37.47,16.64-71.76-9.16-102.89-19.06-22.99-44.72-32.35-74.85-29.96v19.58Zm-293.77,78.49c-17.22-3-31.82,1.27-45.13,11.12-12.76,9.44-19.34,22.56-22.83,37.55-.85,3.64,0,6.84,3.46,9.01,3.73,2.34,7.26,5.03,11.06,7.25,14.86,8.67,30.94,12.51,48.12,11.94,3.87-.13,5.39-1.51,5.34-5.7-.21-17.62-.05-35.24-.03-52.86,0-5.96,0-11.91,0-18.32Zm293.53-.26c0,25.07-.05,49.5.17,73.93,0,1.04,2.53,2.91,3.9,2.92,5.28.07,10.57-.36,15.84-.79,16.84-1.37,31.33-8.47,44.33-18.84,1.5-1.2,2.8-3.89,2.61-5.72-.4-3.84-1.55-7.69-2.95-11.31-2.21-5.72-3.85-12.08-7.55-16.73-14.15-17.74-32.42-26.68-56.34-23.47Zm-68.8,350.98h-156.03v19.02c1.32.13,2.29.32,3.26.31,26.97-.09,53.93-.23,80.9-.31,22.31-.07,44.62-.02,66.92-.21,1.66-.01,4.65-1.43,4.74-2.41.47-5.24.22-10.55.22-16.4ZM156.95,175.78c0-3.32,0-6.64,0-9.96-.01-7.03-5.08-10.95-12.18-9.29-1.75.41-3.41,1.22-5.12,1.84-9.51,3.45-13.82,14.01-11.42,22.54,2.94,10.45,14.31,16.78,24.07,13.86,2.78-.83,4.93-2.43,4.7-6.06-.28-4.3-.06-8.63-.06-12.94Zm293.52.23c0,3.16.21,6.33-.04,9.46-.64,8.07,1.12,9.48,9.63,9.52,8.94.04,14.25-5.13,17.78-12.62,2.57-5.45.49-15.42-4.63-20.1-5.54-5.06-12.16-7.29-19.53-4.23-1.38.58-2.93,2.57-3.05,4.03-.39,4.62-.14,9.29-.16,13.94Z"/>
  <path class="cls-1" d="m508.47,429.89v175.7h-19.79c0-4.02,0-7.95,0-11.88.01-53.1.05-106.2-.02-159.3,0-3.5,1.15-4.74,4.63-4.58,4.95.23,9.91.06,15.18.06Z"/>
  <path class="cls-1" d="m98.02,605.41c0-2.53,0-4.82,0-7.11,0-54.11.05-108.22-.11-162.33-.01-4.58,1.2-6.43,5.83-5.88,2.3.27,4.66.07,6.99.07q6.82,0,6.82,6.57c-.02,54.44-.04,108.89-.06,163.33,0,1.64,0,3.28,0,5.36h-19.47Z"/>
  <path class="cls-1" d="m469.81,410.35v-19.03h96.58v19.03h-96.58Z"/>
  <path class="cls-1" d="m40.24,410.36v-19.07h96.24v19.07H40.24Z"/>
  <path class="cls-1" d="m39.94,352.25h96.62v19.15c-11.05,0-21.83,0-32.62,0-6.56,0-13.11.07-19.67.08-13.88,0-27.76.05-41.63-.16-.92-.01-2.52-1.95-2.58-3.06-.28-5.13-.12-10.29-.12-16.01Z"/>
  <path class="cls-1" d="m469.92,352.22h96.38v18.85h-96.38v-18.85Z"/>
  <path class="cls-1" d="m469.39,547.39v57.9h-19.4v-57.9h19.4Z"/>
  <path class="cls-1" d="m156.5,605.5h-19.18v-57.79h19.18v57.79Z"/>
  <path class="cls-1" d="m450,527.68v-19.41h19.49v19.41h-19.49Z"/>
  <path class="cls-1" d="m78.47,566.74h-19.4v-19.5h19.4v19.5Z"/>
  <path class="cls-1" d="m528.1,547.14h19.47v19.42h-19.47v-19.42Z"/>
  <path class="cls-1" d="m78.56,586.25v19.53h-19.47v-19.53h19.47Z"/>
  <path class="cls-1" d="m527.99,605.79v-19.64h19.64v19.64h-19.64Z"/>
  <path class="cls-1" d="m156.76,527.73c-5.96,0-11.26.19-16.53-.15-1.15-.08-3.02-2.01-3.12-3.21-.37-4.46-.33-8.98-.01-13.45.07-1.06,1.77-2.78,2.81-2.85,4.64-.31,9.32-.31,13.95.03,1.03.07,2.71,1.91,2.77,3.01.29,5.29.13,10.6.13,16.63Z"/>
  <path class="cls-1" d="m296.91,254.01c-38.63-2.2-72.48-22.04-91.21-63.59-16.11-35.74-12.66-70.63,8.74-103.74,12.66-19.58,30.42-32.68,51.72-40.92,7.5-2.9,15.98-3.36,24.06-4.67,5.55-.9,11.24-2.24,16.74-1.81,8.87.7,17.89,1.9,26.39,4.4,8.53,2.51,17.07,5.98,24.58,10.67,8.12,5.07,15.72,11.39,22.31,18.35,6.04,6.38,10.5,14.27,15.48,21.62,2.66,3.92,5.38,7.9,7.28,12.2,1.76,3.99,2.5,8.44,3.62,12.71,1.05,4,2.71,8,2.88,12.05.42,10.17.96,20.45-.11,30.52-.91,8.55-3.11,17.23-6.35,25.2-6.96,17.09-17.65,31.7-32.24,43.32-19.81,15.76-42.33,23.55-73.89,23.69Zm36.56-111.21c22.27,9.83,36.84,26.31,44.88,49.24,14.14-23.8,17.71-48.43,8.8-73.37-8.87-24.83-25.54-43.99-50.63-54.05-29.8-11.94-75.45-9.23-105.89,32.64-18.77,25.82-20.11,78.44-1.61,94.01,3.29-11.1,8.71-21.14,16.8-28.95,7.99-7.72,17.48-13.89,26.61-20.98-5.56-8.17-9.37-17.86-7.72-29.24,1.63-11.28,6.96-20.19,16.07-26.7,13.77-9.84,33.42-10.14,47.65,2,13.09,11.17,21.29,32.57,5.03,55.4Zm-28.68,92.16c4.23-.55,10.01-1,15.67-2.1,13.78-2.68,26.01-8.88,37.3-17.11,3.19-2.33,4.74-5.12,3.84-9.17-5.36-24.09-18.75-40.65-43.08-47.98-22.21-6.69-40.14,1.51-56.28,15.34-10.36,8.87-15.22,21.23-17.16,34.59-.24,1.67.77,4.2,2.08,5.3,16.15,13.73,35.13,20.17,57.63,21.14Zm17.95-117.7c.81-10-9.07-19.54-19.34-19.41-10.58.14-19.72,9.14-19.67,19.53.05,10.26,9.51,19.71,19.69,19.55,11.27-.17,20.26-10.57,19.32-19.67Z"/>
  <path class="cls-1" d="m244.67,332.54c14.32,0,28.65.14,42.97-.08,4.56-.07,6.11,1.34,6.05,6-.17,13.26,0,13.26-13.06,13.26-25.98,0-51.96,0-77.95,0-6.7,0-6.7-.03-6.71-6.54q-.02-12.59,12.72-12.61c11.99,0,23.98,0,35.98,0v-.02Z"/>
  <path class="cls-1" d="m235.06,293.86h58.52c0,5.61.16,10.75-.14,15.86-.06,1.02-1.9,2.75-2.93,2.76-17.44.18-34.89.19-52.33,0-1.05-.01-2.9-2.01-2.98-3.18-.34-4.94-.14-9.92-.14-15.44Z"/>
  <path class="cls-1" d="m215.3,293.38c0,5.71-.15,10.51.06,15.3.12,2.84-1.05,3.94-3.69,3.91-.17,0-.33,0-.5,0-15.29.88-17.27-1.27-15.1-16.67.13-.93,1.39-2.4,2.17-2.43,5.59-.21,11.19-.11,17.06-.11Z"/>
</svg>