<?xml version="1.0" encoding="UTF-8"?>
<defs>
    <style>
      .open_eye_icon {
        fill: inherit;
      }
    </style>
  </defs>
<svg id="Layer_1" xmlns="http://www.w3.org/2000/svg" viewBox="0 0 1546.95 871.11">
  <path class="open_eye_icon" d="M773.05,0c325.84,12.57,582.16,148.11,766.1,417.36,9.73,14.25,10.81,24.39.71,39.3-155.61,229.7-368.93,373.14-644.65,406.28-373.47,44.89-668.69-95.98-886.01-402.13-11.55-16.27-12.69-28.3-.74-45.81C164.08,186.99,377.66,51.35,650.85,10.75c40.77-6.06,82.25-7.35,122.2-10.75ZM773.45,771.82c184.16-.17,334.02-150.17,334.03-334.33,0-184.23-149.75-334.16-333.97-334.35-185.42-.2-335.19,149.79-334.8,335.26.39,184.39,150.19,333.59,334.74,333.42Z"/>
  <path class="open_eye_icon" d="M772.15,186.05c137.69-.53,252.41,113.75,252.4,251.42,0,136.86-113.63,250.89-250.52,251.42-137.58.54-252.41-113.86-252.39-251.46.01-136.86,113.62-250.86,250.51-251.39Z"/>
</svg>