<?xml version="1.0" encoding="UTF-8"?>
<svg id="Layer_1" data-name="Layer 1" xmlns="http://www.w3.org/2000/svg" viewBox="0 0 925.44 925">
  <defs>
    <style>
      .pole {
        stroke-width: 0px;
      }
    </style>
  </defs>
  <path class="pole" d="m.15,462.86C.15,343.44,0,224.02.21,104.61.32,44.5,45.58.04,105.51.05,342.87.08,580.22,0,817.57,0c51.91,0,92.89,31.2,104.67,79.53,1.93,7.91,2.7,15.98,2.7,24.13-.03,219.88.02,439.76-.2,659.64-.03,25.22,2.38,50.56-1.54,75.66-7.28,46.55-46.82,83.26-93.83,85.15-37.54,1.51-75.19.63-112.79.64-157.33.04-314.66.02-471.99.02-47.83,0-95.66.29-143.49-.1-55.24-.45-100.47-45.93-100.84-101.76-.46-69.48-.15-138.97-.17-208.45-.01-50.53,0-101.07,0-151.6h.06Zm411.39-1c0,82.69.08,165.39-.15,248.08-.02,6.88,1.45,9.2,8.79,9.08,28.26-.46,56.54-.41,84.8-.05,6.64.08,8.68-1.53,8.6-8.44-.38-32.17-.15-64.35-.15-96.52,0-132.91-.07-265.82.14-398.73.01-7.36-1.76-9.63-9.36-9.51-27.96.46-55.94.42-83.9,0-7.09-.11-8.97,1.77-8.95,8.92.26,82.39.17,164.79.17,247.18Zm-205.52,77.3c0,57.12.12,114.23-.16,171.35-.03,6.72,1.61,8.57,8.43,8.48,28.56-.41,57.12-.32,85.68-.05,5.87.06,8.25-.92,8.24-7.62-.17-114.52-.11-229.05.13-343.57.01-6.39-1.83-8.01-8.07-7.94-28.56.33-57.12.44-85.67-.06-7.4-.13-8.74,2.16-8.71,8.97.26,56.82.15,113.63.13,170.45Zm410.92,77.61s-.1,0-.15,0c0,31.57.14,63.13-.13,94.7-.05,5.85,1.47,7.58,7.49,7.52,29.16-.33,58.33-.32,87.5-.01,6.11.06,7.44-1.97,7.42-7.71-.18-63.44-.18-126.88.03-190.31.02-5.49-1.24-7.02-6.9-6.96-29.16.32-58.33.35-87.49,0-6.45-.08-7.97,1.91-7.91,8.09.3,31.56.14,63.13.14,94.69Z"/>
</svg>