<?xml version="1.0" encoding="UTF-8"?>
<svg id="Layer_1" data-name="Layer 1" xmlns="http://www.w3.org/2000/svg" viewBox="0 0 734.71 564.45">
  <defs>
    <style>
      .recurring_payment_year {
        fill: inherit;
        stroke-width: 0px;
      }
    </style>
  </defs>
  <path class="recurring_payment_year" d="m282.23,515.42c-128.79,0-233.2-104.4-233.2-233.19S153.44,49.03,282.23,49.03c79.01,0,148.85,39.29,191.02,99.4l-54.62-10.53,14.33,23.66,88.47,17.07,25.9-86.3-14.33-23.67-16.73,55.78C465.55,49.36,379.66,0,282.23,0,126.37,0,0,126.36,0,282.23s126.37,282.22,282.23,282.22c111.41,0,207.75-64.56,253.63-158.31l-46.44-16.79c-38.8,74.89-117.02,126.07-207.19,126.07Zm225.12-361.27l-.24.81-1.02-.2,1.26-.61Z"/>
  <g id="Layer_1-2" data-name="Layer 1-2">
    <path class="recurring_payment_year" d="m549.89,286.2c-.11,1.13-1.3,2.31-3.55,3.55-5.19,2.85-12.36,3.75-21.51,2.68l21.19-11.48,1.1,1.01c1.96,1.7,2.89,3.11,2.77,4.24Z"/>
    <path class="recurring_payment_year" d="m570.32,259.39l-20.12,10.74h0c-.25-.19-.59-.43-1.03-.7-2.54-1.63-3.86-2.99-3.98-4.09-.12-1.1.93-2.22,3.13-3.38,2.43-1.27,5.7-2.15,9.8-2.62,4.11-.48,8.17-.47,12.21.05Z"/>
    <path class="recurring_payment_year" d="m469.32,211.71l-115.38,70.51,265.39,70.51,115.38-70.51-265.39-70.51Zm123.01,59.58c-.69-3.88-4.28-7.07-10.76-9.6l-23.18,12.56c6.07,2.92,9.22,5.95,9.48,9.1.25,3.17-2.21,6.21-7.37,9.09-5.16,2.88-11.83,4.95-20,6.17-4.06.61-8.08.91-12.07.91s-8.73-.45-14.24-1.32l-12.69,6.87-11.14-2.99,12.67-6.76c-6.92-2.26-12.73-5.88-17.43-10.79l14.33-7.39c.96,2.74,2.46,5.1,4.49,7.09,2.03,2,5.07,3.83,9.11,5.49l25.1-13.4c-5.25-2.89-8.46-5.16-9.61-6.84-1.15-1.67-1.26-3.39-.32-5.16.93-1.76,2.77-3.34,5.5-4.75,5.34-2.76,12.25-4.63,20.71-5.64,8.47-1.03,17.03-1.04,25.67,0l4.22-2.25,11.24,2.16-4.18,2.27c7.75,2.37,12.3,4.99,13.65,7.85l-13.18,7.33Z"/>
    <path class="recurring_payment_year" d="m596.04,253.85h.03s.02-.02.02-.02l-.05.02Z"/>
  </g>
  <g>
    <path class="recurring_payment_year" d="m198.23,179.24h13.8l-20.2,60.6c-2.7,8.1-7.1,11.9-16.1,11.9h-9.2v-11.5h9.9l1.8-5.8-18.4-55.2h14.7l7.7,24.5,3.8,15.2h.6l3.9-15.2,7.7-24.5Z"/>
    <path class="recurring_payment_year" d="m215.43,205.44c0-16.6,8.8-27.4,24.6-27.4,17.4,0,24.4,12.6,24.4,26.8v4.4h-33.7v.8c0,6.9,3.7,11.3,11.6,11.3,6.2,0,9.6-2.9,12.9-6.3l7.4,9.2c-4.7,5.4-12.4,8.7-22,8.7-16.1,0-25.2-10.7-25.2-27.5Zm15.3-5.7v.8h18.4v-.9c0-6.4-2.9-10.7-8.8-10.7s-9.6,4.3-9.6,10.8Z"/>
    <path class="recurring_payment_year" d="m313.73,231.75c-5.3,0-9.1-3.6-10-9.2h-.6c-1.6,6.8-7.4,10.4-15.4,10.4-10.5,0-16.3-6.2-16.3-15.3,0-11.1,8.6-16.4,22.5-16.4h8.3v-3.3c0-5.1-2.5-8.3-8.7-8.3s-9,3-11.3,6.2l-8.8-7.8c4.2-6.2,10.2-10,21.2-10,14.8,0,22.4,6.8,22.4,19.2v23h4.9v11.5h-8.2Zm-11.5-15.9v-6.2h-7.2c-5.7,0-8.7,2.1-8.7,5.9v1.5c0,3.8,2.5,5.6,6.9,5.6,4.9,0,9-2,9-6.8Z"/>
    <path class="recurring_payment_year" d="m331.83,231.75v-52.5h14.8v11.4h.5c1.2-5.8,5.2-11.4,13.4-11.4h2.6v13.8h-3.7c-8.6,0-12.8,1.9-12.8,8v30.7h-14.8Z"/>
  </g>
</svg>