<?xml version="1.0" encoding="UTF-8"?>
<svg id="Layer_1" data-name="Layer 1" xmlns="http://www.w3.org/2000/svg" viewBox="0 0 734.71 564.45">
    <defs>
      <style>
        .recurring_payment_month {
          fill: inherit;
          stroke-width: 0px;
        }
      </style>
    </defs>
    <path class="recurring_payment_month" d="m282.23,515.42c-128.79,0-233.2-104.4-233.2-233.19S153.44,49.03,282.23,49.03c79.01,0,148.85,39.29,191.02,99.4l-54.62-10.53,14.33,23.66,88.47,17.07,25.9-86.3-14.33-23.67-16.73,55.78C465.55,49.36,379.66,0,282.23,0,126.37,0,0,126.36,0,282.23s126.37,282.22,282.23,282.22c111.41,0,207.75-64.56,253.63-158.31l-46.44-16.79c-38.8,74.89-117.02,126.07-207.19,126.07Zm225.12-361.27l-.24.81-1.02-.2,1.26-.61Z"/>
    <g id="Layer_1-2" data-name="Layer 1-2">
      <path class="recurring_payment_month" d="m549.89,286.2c-.11,1.13-1.3,2.31-3.55,3.55-5.19,2.85-12.36,3.75-21.51,2.68l21.19-11.48,1.1,1.01c1.96,1.7,2.89,3.11,2.77,4.24Z"/>
      <path class="recurring_payment_month" d="m570.32,259.39l-20.12,10.74h0c-.25-.19-.59-.43-1.03-.7-2.54-1.63-3.86-2.99-3.98-4.09-.12-1.1.93-2.22,3.13-3.38,2.43-1.27,5.7-2.15,9.8-2.62,4.11-.48,8.17-.47,12.21.05Z"/>
      <path class="recurring_payment_month" d="m469.32,211.71l-115.38,70.51,265.39,70.51,115.38-70.51-265.39-70.51Zm123.01,59.58c-.69-3.88-4.28-7.07-10.76-9.6l-23.18,12.56c6.07,2.92,9.22,5.95,9.48,9.1.25,3.17-2.21,6.21-7.37,9.09-5.16,2.88-11.83,4.95-20,6.17-4.06.61-8.08.91-12.07.91s-8.73-.45-14.24-1.32l-12.69,6.87-11.14-2.99,12.67-6.76c-6.92-2.26-12.73-5.88-17.43-10.79l14.33-7.39c.96,2.74,2.46,5.1,4.49,7.09,2.03,2,5.07,3.83,9.11,5.49l25.1-13.4c-5.25-2.89-8.46-5.16-9.61-6.84-1.15-1.67-1.26-3.39-.32-5.16.93-1.76,2.77-3.34,5.5-4.75,5.34-2.76,12.25-4.63,20.71-5.64,8.47-1.03,17.03-1.04,25.67,0l4.22-2.25,11.24,2.16-4.18,2.27c7.75,2.37,12.3,4.99,13.65,7.85l-13.18,7.33Z"/>
      <path class="recurring_payment_month" d="m596.04,253.85h.03s.02-.02.02-.02l-.05.02Z"/>
    </g>
    <g>
      <path class="recurring_payment_month" d="m124.46,231.75v-52.5h14.8v8.9h.6c1.9-5.6,6.3-10.1,14.1-10.1,7.2,0,12.4,3.7,14.7,10.6h.3c1.9-5.9,8-10.6,16-10.6,10.1,0,15.7,7.6,15.7,20.8v32.9h-14.8v-31.7c0-6.8-2.3-10-7.2-10-4.4,0-8.7,2.5-8.7,7.7v34h-14.8v-31.7c0-6.8-2.4-10-7.2-10-4.3,0-8.7,2.5-8.7,7.7v34h-14.8Z"/>
      <path class="recurring_payment_month" d="m210.56,205.44c0-16.9,9.2-27.4,24.6-27.4s24.6,10.5,24.6,27.4-9.2,27.5-24.6,27.5-24.6-10.6-24.6-27.5Zm33.8,5.4v-10.7c0-6.6-3.4-10.4-9.2-10.4s-9.2,3.8-9.2,10.4v10.7c0,6.6,3.4,10.4,9.2,10.4s9.2-3.8,9.2-10.4Z"/>
      <path class="recurring_payment_month" d="m270.26,231.75v-52.5h14.8v8.9h.6c1.9-5.5,6.3-10.1,14.6-10.1,10.7,0,16.4,7.6,16.4,20.8v32.9h-14.8v-31.7c0-6.7-1.9-10-7.3-10-4.8,0-9.5,2.5-9.5,7.7v34h-14.8Z"/>
      <path class="recurring_payment_month" d="m348.26,231.75c-10.2,0-15.6-5.3-15.6-15.3v-25.7h-7.4v-11.5h3.7c4,0,5.2-2,5.2-5.6v-8.6h13.3v14.2h10.4v11.5h-10.4v29.5h9.6v11.5h-8.8Z"/>
      <path class="recurring_payment_month" d="m368.16,157.74h14.8v30.4h.6c1.9-5.5,6.3-10.1,14.6-10.1,10.7,0,16.4,7.6,16.4,20.8v32.9h-14.8v-31.7c0-6.7-1.9-10-7.3-10-4.8,0-9.5,2.5-9.5,7.7v34h-14.8v-74Z"/>
    </g>
</svg>