<?xml version="1.0" encoding="UTF-8"?>
<svg id="Layer_1" data-name="Layer 1" xmlns="http://www.w3.org/2000/svg" viewBox="0 0 734.71 564.45">
  <defs>
    <style>
      .recurring_payment_01 {
        fill: #231f20;
      }

      .recurring_payment_01, .recurring_payment_02, .recurring_payment_03 {
        stroke-width: 0px;
      }

      .recurring_payment_02 {
        fill: #706961;
      }

      .recurring_payment_03 {
        fill: #716a62;
      }
    </style>
  </defs>
  <path class="recurring_payment_02" d="m282.23,515.42c-128.79,0-233.2-104.4-233.2-233.19S153.44,49.03,282.23,49.03c79.01,0,148.85,39.29,191.02,99.4l-54.62-10.53,14.33,23.66,88.47,17.07,25.9-86.3-14.33-23.67-16.73,55.78C465.55,49.36,379.66,0,282.23,0,126.37,0,0,126.36,0,282.23s126.37,282.22,282.23,282.22c111.41,0,207.75-64.56,253.63-158.31l-46.44-16.79c-38.8,74.89-117.02,126.07-207.19,126.07Zm225.12-361.27l-.24.81-1.02-.2,1.26-.61Z"/>
  <g id="Layer_1-2" data-name="Layer 1-2">
    <path class="recurring_payment_03" d="m549.89,286.2c-.11,1.13-1.3,2.31-3.55,3.55-5.19,2.85-12.36,3.75-21.51,2.68l21.19-11.48,1.1,1.01c1.96,1.7,2.89,3.11,2.77,4.24Z"/>
    <path class="recurring_payment_03" d="m570.32,259.39l-20.12,10.74h0c-.25-.19-.59-.43-1.03-.7-2.54-1.63-3.86-2.99-3.98-4.09-.12-1.1.93-2.22,3.13-3.38,2.43-1.27,5.7-2.15,9.8-2.62,4.11-.48,8.17-.47,12.21.05Z"/>
    <path class="recurring_payment_03" d="m469.32,211.71l-115.38,70.51,265.39,70.51,115.38-70.51-265.39-70.51Zm123.01,59.58c-.69-3.88-4.28-7.07-10.76-9.6l-23.18,12.56c6.07,2.92,9.22,5.95,9.48,9.1.25,3.17-2.21,6.21-7.37,9.09-5.16,2.88-11.83,4.95-20,6.17-4.06.61-8.08.91-12.07.91s-8.73-.45-14.24-1.32l-12.69,6.87-11.14-2.99,12.67-6.76c-6.92-2.26-12.73-5.88-17.43-10.79l14.33-7.39c.96,2.74,2.46,5.1,4.49,7.09,2.03,2,5.07,3.83,9.11,5.49l25.1-13.4c-5.25-2.89-8.46-5.16-9.61-6.84-1.15-1.67-1.26-3.39-.32-5.16.93-1.76,2.77-3.34,5.5-4.75,5.34-2.76,12.25-4.63,20.71-5.64,8.47-1.03,17.03-1.04,25.67,0l4.22-2.25,11.24,2.16-4.18,2.27c7.75,2.37,12.3,4.99,13.65,7.85l-13.18,7.33Z"/>
    <path class="recurring_payment_01" d="m596.04,253.85h.03s.02-.02.02-.02l-.05.02Z"/>
  </g>
</svg>