<?xml version="1.0" encoding="UTF-8"?>
<svg id="Layer_1" data-name="Layer 1" xmlns="http://www.w3.org/2000/svg" viewBox="0 0 885.69 935.36">
  <defs>
    <style>
      .repost_icon {
        fill: #030303;
        stroke-width: 0px;
      }
    </style>
  </defs>
  <path class="repost_icon" d="m.06,634.55c2.67-95.22-9.37-186.3,23.43-274.59C80.56,206.3,220.66,108.41,390.01,105.97c34.02-.49,68.04.01,102.07-.12,35.29-.13,30.98,3.67,31.35-32.49.2-19.91.36-39.84-.09-59.74-.28-12.29,2.2-17.92,15.09-9.84,9.82,6.16,20.25,11.35,30.35,17.05,103.88,58.62,207.74,117.25,311.67,175.92-1.77,10.17-10.26,11.29-16.1,14.59-105.33,59.65-210.79,119.07-316.27,178.47-24.47,13.78-24.56,13.65-24.62-13.25-.04-19.09-1.31-38.28.28-57.23,1.66-19.88-3.54-27.82-25.38-26.85-41.41,1.84-82.96.18-124.45.64-104.18,1.16-186.95,80.62-184.96,184.3.79,41.3-12.87,62.32-48.51,79.27-46.77,22.24-90.89,50.06-140.39,77.86Z"/>
  <path class="repost_icon" d="m.11,735.89c75.44-42.57,146.77-82.82,218.09-123.06,39.71-22.4,79.4-44.85,119.17-67.16,24.47-13.73,24.53-13.63,24.59,13.3.05,20.75.84,41.53-.18,62.22-.76,15.42,3.02,22.11,20.33,21.66,45.61-1.2,91.3.59,136.9-.72,97.19-2.79,178.89-82,177.12-179.11-.82-45.18,13.66-68.49,53.27-86.63,45.53-20.85,87.94-48.51,136.01-75.64-2.59,88.04,8.41,171.74-16.4,253.52-49.99,164.77-196.27,272.69-373.57,275.25-34.85.5-69.83,1.92-104.51-.52-25.35-1.79-31.48,7.5-29.35,30.66,1.89,20.57.08,41.46.52,62.2.26,12.26-1.98,17.65-15.1,9.9-21.42-12.64-43.42-24.27-65.08-36.51C189.62,843.1,97.37,790.89.11,735.89Z"/>
</svg>