<?xml version="1.0" encoding="UTF-8"?>
<svg 
    id="Layer_1" 
    data-name="Layer 1" 
    xmlns="http://www.w3.org/2000/svg" 
    viewBox="0 0 788.15 291.89"
>
    <defs>
    <style>
        .single_payment_icon_01 {
            fill: inherit;
        }

        .single_payment_icon_01, .single_payment_icon_02 {
            stroke-width: 0px;
        }

        .single_payment_icon_02 {
            fill: inherit;
        }
    </style>
    </defs>
    <g id="Layer_1-2" data-name="Layer 1-2">
    <path class="single_payment_icon_02" d="m405.59,154.19c-.23,2.34-2.69,4.78-7.35,7.35-10.74,5.9-25.58,7.76-44.52,5.55l43.86-23.76,2.28,2.09c4.06,3.52,5.98,6.44,5.73,8.78Z"/>
    <path class="single_payment_icon_02" d="m447.88,98.69l-41.65,22.23-.02.02c-.52-.41-1.22-.91-2.13-1.47-5.26-3.37-7.99-6.19-8.24-8.47-.25-2.28,1.92-4.6,6.48-7,5.03-2.63,11.8-4.45,20.28-5.42,8.51-.99,16.91-.97,25.27.1Z"/>
    <path class="single_payment_icon_02" d="m238.82,0L0,145.95l549.33,145.95,238.82-145.95L238.82,0Zm254.62,123.32c-1.43-8.03-8.86-14.63-22.27-19.87l-47.98,26c12.56,6.04,19.08,12.32,19.62,18.84.52,6.56-4.57,12.85-15.26,18.82-10.68,5.96-24.49,10.25-41.4,12.77-8.4,1.26-16.72,1.88-24.98,1.88s-18.07-.93-29.48-2.73l-26.27,14.22-23.06-6.19,26.23-13.99c-14.32-4.68-26.35-12.17-36.08-22.33l29.66-15.3c1.99,5.67,5.09,10.56,9.29,14.68,4.2,4.14,10.49,7.93,18.86,11.36l51.95-27.74c-10.87-5.98-17.51-10.68-19.89-14.16-2.38-3.46-2.61-7.02-.66-10.68,1.93-3.64,5.73-6.91,11.38-9.83,11.05-5.71,25.36-9.58,42.87-11.67,17.53-2.13,35.25-2.15,53.13,0l8.73-4.66,23.27,4.47-8.65,4.7c16.04,4.91,25.46,10.33,28.25,16.25l-27.28,15.17Z"/>
    <path class="single_payment_icon_01" d="m501.12,87.2l.06.02.04-.06-.1.04Z"/>
    </g>
</svg>