<?xml version="1.0" encoding="UTF-8"?>
<svg id="Layer_1" data-name="Layer 1" xmlns="http://www.w3.org/2000/svg" viewBox="0 0 1500 1490.26">
  <defs>
    <style>
      .facebook_logo {
        fill: inherit;
        stroke-width: 0px;
      }
    </style>
  </defs>
  <path class="facebook_logo" d="m867.54,1228.68v-251.67c0-.94,0-1.87,0-2.81-.03-8.49-.2-7.64,7.56-7.64,52.72,0,105.45,0,158.17,0,8.62,0,8.75.02,10.01-8.13,3.93-25.42,7.73-50.86,11.63-76.29,4.94-32.13,9.94-64.24,14.9-96.36,1.6-10.4,3.22-20.8,4.69-31.22.64-4.54.43-4.69-4.25-4.81-3.28-.09-6.56-.02-9.84-.02-61.16,0-122.32,0-183.48,0-1.87,0-3.75-.1-5.62,0-2.67.15-3.91-.98-3.77-3.68.07-1.4,0-2.81,0-4.22,0-44.99.06-89.98-.03-134.98-.04-17.76,2.76-34.96,9.54-51.4,12.29-29.78,34.73-48.15,65.23-57.12,14.45-4.25,29.3-6.04,44.35-6.05,29.76-.02,59.52,0,89.28,0,1.87,0,3.75,0,5.62-.05,1.69-.04,2.55-.97,2.58-2.64.03-1.64.03-3.28.03-4.92,0-56.44.01-112.88.02-169.32,0-1.17-.13-2.36,0-3.51.36-3.19-.97-4.52-4.2-5.02-17.57-2.7-35.19-4.97-52.85-7.05-26.48-3.11-53.05-5.19-79.67-6.38-47.98-2.16-95.45.61-141.4,16.31-59.66,20.38-105.73,57.25-136.34,112.71-15.64,28.34-25.36,58.79-30.98,90.58-4.08,23.1-5.9,46.38-5.83,69.85.15,52.72.05,105.45.05,158.17,0,1.64-.08,3.28,0,4.92.14,2.62-.9,3.94-3.64,3.8-1.87-.09-3.75,0-5.62,0-57.88,0-115.76,0-173.64,0-8.74,0-7.86-.66-7.87,7.98-.01,67.02-.02,134.04,0,201.06,0,8.46-.98,7.77,8.06,7.77,58.11.01,116.23,0,174.34.02,9.31,0,8.35-.9,8.35,8.2.01,169.19,0,338.38,0,507.57,0,.7,0,1.41,0,2.11q-.06,6.32-6.02,5.34c-62.93-10.29-123.52-28.44-181.74-54.38-72.68-32.38-138.55-75.31-197.6-128.62-66.57-60.09-120.65-129.94-162.4-209.29-27.7-52.65-48.63-107.92-62.99-165.63-9.45-37.97-15.73-76.5-19.25-115.51-3.1-34.38-3.67-68.81-2.06-103.21,3.06-65.31,14.6-129.2,34.52-191.54,25.84-80.82,64.31-155.1,115.38-222.8,64.69-85.75,144.17-154.59,238.2-206.45,71.92-39.66,148.45-66.44,229.36-80.88C674.17,1.51,730.4-1.71,786.95.83c47.1,2.11,93.58,8.97,139.46,20.02,56,13.49,109.71,33.17,161.09,59.12,61.61,31.12,117.9,70,168.8,116.67,59.17,54.27,108.58,116.3,147.9,186.31,31.45,55.99,55.43,115.01,71.47,177.24,9.07,35.18,15.65,70.77,19.72,106.89,3.16,27.98,4.69,56.03,4.6,84.12-.18,57.55-6.69,114.4-19.83,170.51-14.6,62.32-36.87,121.73-66.73,178.27-29.34,55.57-65.19,106.62-107.39,153.21-56.49,62.37-121.61,113.87-195.32,154.41-52.72,28.99-108.14,51.39-166.36,66.82-23.77,6.3-47.76,11.54-72.03,15.47-4.6.75-4.63.71-4.79-3.91-.06-1.64-.01-3.28-.01-4.92v-252.38Z"/>
</svg>