<?xml version="1.0" encoding="UTF-8"?>
<svg id="Layer_1" data-name="Layer 1" xmlns="http://www.w3.org/2000/svg" viewBox="0 0 725.48 727.04">
  <defs>
    <style>
      .instagram_logo {
        fill: inherit;
        fill-rule: evenodd;
        stroke-width: 0px;
      }
    </style>
  </defs>
  <path class="instagram_logo" d="m722.09,225.91c-75.45-7.81-136.61,10.92-188.39,0-32.27-6.8-52.6-37.78-72.71-46.27-62.66-26.45-147.72-16.07-201.61,23.13-9.31,6.78-20.59,19.72-33.05,23.14-67.32,18.46-140.67-13.49-221.44,0C-7.77,110.02,18.42,18.63,113.97,4.47c67.08-9.94,168.25,0,264.4,0s207.21-12,267.71,3.3c86.75,21.94,77.91,120.56,76.02,218.13ZM507.27,47.44c-15.17,26.24-16.07,106.15,0,132.2,33.57,5.68,88.63,5.16,122.29,0,10.39-30.07,10.83-98.89,0-128.9-29.13-11.76-88.02-7.22-122.29-3.3Z"/>
  <path class="instagram_logo" d="m348.62,212.69c101.77-17.36,188.39,57.33,188.39,155.34,0,216.27-316.86,197.13-320.59,3.3-1.57-81.57,52.77-145.09,132.2-158.64Z"/>
  <path class="instagram_logo" d="m8.21,275.49h185.08c-54.74,103.47,7.22,233.67,85.93,274.32,135.79,70.13,317.45-23.41,300.76-204.91-2.33-25.39-8.38-43.8-19.83-66.1,47.38-7.7,109.06-1.11,161.95-3.31-18.36,149.76,51.62,407-72.71,442.88-60.14,17.35-176.78,3.3-267.71,3.3-165.08,0-351.92,29.24-376.77-95.85-11.03-55.49,0-117.66,0-171.86v-168.56c-.28-4.69-.55-9.36,3.31-9.92Z"/>
</svg>