<?xml version="1.0" encoding="UTF-8"?>
<svg id="Layer_1" data-name="Layer 1" xmlns="http://www.w3.org/2000/svg" viewBox="0 0 1330.5 1330.5">
  <defs>
    <style>
      .linkedin_logo {
        fill: inherit;
        color: inherit;
        stroke-width: 0px;
      }
    </style>
  </defs>
  <path class="linkedin_logo" d="m665.25,0C297.84,0,0,297.84,0,665.25s297.84,665.25,665.25,665.25,665.25-297.84,665.25-665.25S1032.66,0,665.25,0Zm-209.57,1043.27h-168.42V455.17h168.42v588.1Zm-84.74-628.75c-47.81-.07-84.6-37.46-84.49-85.87.1-47.2,37.37-84.16,84.87-84.17,48.12-.02,85.2,37.07,85.17,85.21-.03,47.96-37.28,84.91-85.55,84.83Zm673.08,618.91c.01,2.96-.44,5.92-.74,9.73h-169.28v-17.2c0-103.15.31-206.3-.33-309.44-.1-15.86-2.58-32.33-7.44-47.4-8.51-26.37-29.59-38.47-56.16-42.42-20.19-3-39.96-2.29-59.03,5.55-24.68,10.15-37.22,29.7-40.16,55.3-1.94,16.86-2.42,33.95-2.46,50.95-.22,96.15-.1,192.31-.11,288.46v16.23h-169.24V455.12h168.13v69.66c17.45-46.54,54.68-63.91,99.39-67.15,32.39-2.35,65.72-3.58,97.6,1.33,63.7,9.82,101.94,50.77,121.12,111.12,12.55,39.46,17.56,80.28,18.05,121.13,1.37,114.06.62,228.14.66,342.22Z"/>
</svg>