<?xml version="1.0" encoding="UTF-8"?>
<svg id="Layer_1" data-name="Layer 1" xmlns="http://www.w3.org/2000/svg" viewBox="0 0 1499.87 1500.11">
  <defs>
    <style>
      .x_logo {
        fill: inherit;
        color: inherit;
        stroke-width: 0px;
      }
    </style>
  </defs>
  <path class="x_logo" d="m749.04,1500.1C335.39,1499.36-1.05,1162.23,0,749.55,1.06,334.67,337.37-.74,751.59,0c413.83.74,749.3,338.21,748.28,752.75-1.02,412.43-338.24,748.1-750.83,747.36Zm-492.67-282.82c28.51,0,52.48.37,76.41-.32,4.55-.13,10.03-3.47,13.31-6.98,85.61-91.66,170.96-183.55,256.4-275.36,25.62-27.53,51.38-54.94,77.55-82.92,2.73,3.52,4.53,5.79,6.26,8.11,85.41,114.61,170.93,229.14,256.04,343.98,7.42,10.01,15.11,13.94,27.83,13.84,84.28-.64,168.57-.32,252.85-.3,5.65,0,11.3,0,20.31,0-135.88-181.07-269.64-359.31-403.47-537.63,123.11-132.29,245-263.26,369.34-396.86-26.11,0-48.08-.62-69.97.38-6.41.29-14.32,3.59-18.66,8.22-74.82,79.62-149.17,159.69-223.68,239.6-30.71,32.93-61.58,65.71-93.28,99.51-4.05-5.08-7.78-9.51-11.25-14.13-80.49-107.2-161.03-214.35-241.25-321.75-6.48-8.67-13.14-12.23-24.26-12.16-84.28.53-168.57.28-252.85.28-4.66,0-9.31,0-17.48,0,130.3,174.91,258.44,346.94,386.98,519.48-128.73,138-256.55,275.02-387.14,415.01Z"/>
  <path class="x_logo" d="m382.92,345.24c43.94,0,85.01-.46,126.05.53,5.72.14,12.73,6.29,16.67,11.52,72.76,96.53,461.5,616,583.43,778.97,2.84,3.8,5.47,7.75,10.01,14.2-20.85,0-98.64.76-119.14-.47-6.6-.4-15.08-4.42-18.98-9.59-158.14-209.25-550.73-730.74-589.24-781.97-2.59-3.45-4.81-7.18-8.8-13.2Z"/>
</svg>