<?xml version="1.0" encoding="UTF-8"?>
<svg id="Layer_1" data-name="Layer 1" xmlns="http://www.w3.org/2000/svg" viewBox="0 0 381.63 795.72">
  <defs>
    <style>
      .mailbox {
        fill: #fff;
        stroke: #231f20;
        stroke-miterlimit: 10;
        stroke-width: 4px;
      }
    </style>
  </defs>
  <path class="mailbox" d="m332.19,2c6.12,1.69,10.88,4.91,13.44,11.05,2.17,5.21,1.14,14.56-2.43,18.28-.47.49-1.25.7-1.87,1.05-4.48,2.56-5.77,6.09-3.74,10.87.94,2.22,2.57,3.94,5.29,3.88,1.82-.04,2.89.31,2.26,2.54-.43,1.52,0,2.77,1.59,3.67,1.36.77,2.02,2.33.22,3.15-2.85,1.29-2.69,3.78-2.66,6,.26,20.55.55,41.1,1.04,61.65.31,13.13.35,26.26.67,39.39.8,32.31,1.14,64.62,1.7,96.94.54,31.15,1.13,62.3,1.66,93.45.03,1.55.22,2.73,1.64,3.8,2.82,2.13,2.48,5.94,4.11,8.8,1.07,1.88-1.67,2.95-2.21,4.82-1.21,4.2.58,7.26,2.84,10.03,1.88,2.32.67,3.99.4,6.21-.23,1.95,1.95,3.93-.8,5.99-1.32.99-2.01,2.87-3.51,4.09-1.26,1.02-.76,2.89.74,3.74,1.17.66,1.75,1.6,2.45,2.63,2.25,3.3,2.22,4.2-1.35,6.01-1.71.87-1.14,2.1-1.12,3.2.33,17.37.73,34.74,1.09,52.12.56,27.32,1.1,54.65,1.66,81.97.33,15.99.72,31.98,1.06,47.97.64,29.55,1.3,59.11,1.84,88.66.03,1.71.96,2.22,2.02,2.78,1.62.84,3.07,1.81,4.15,3.3,2.19,3.03,2.25,5.53-.34,8.22-1.53,1.59-2,3.21-1.98,5.35.25,18.12.44,36.24.5,54.37,0,2.2.95,2.96,2.7,3.43,3.15.85,6.12,2.12,8.92,3.81,3.17,1.91,5.28,4.31,4.85,8.33-.13,1.24-.13,2.63.27,3.78,1.26,3.64-1.17,5.33-3.49,7.11-5.5,4.2-11.92,6.38-18.58,7.32-20.4,2.89-40.78,2.95-60.87-2.37-6.2-1.64-11.98-4.33-17.1-8.33-1.72-1.35-2.56-2.85-2.35-5.12.41-4.61.11-9.42,4.76-12.4,2.93-1.88,6.16-3.04,9.48-3.8,1.78-.4,2.41-.96,2.44-2.85.33-18.54.74-37.07,1.18-55.61.04-1.77-.27-3.2-1.52-4.61-2.92-3.29-2.55-7.18,1.35-9.37,3.31-1.86,3.9-4.29,3.99-7.7.58-22.56,1.32-45.11,2.05-67.66.56-17.36,1.16-34.72,1.75-52.08.66-19.48,1.33-38.96,2-58.43.43-12.59.83-25.19,1.27-37.78.59-17.03,1.19-34.06,1.83-51.09.06-1.69-.05-2.9-1.94-3.74-1.97-.88-2.5-2.46-.44-4.12,1.41-1.14,1.01-3.72,3.36-4.28.25-.06.53-2.25.1-2.62-1.77-1.49-1.9-4.18-4.08-5.28-2.04-1.03-2.04-2.66-.76-4.15,1.06-1.24.94-2.03-.07-3.16-1.05-1.17-1.24-2.88.29-3.48,2.6-1.02,2.79-3.54,3.88-5.4,1.41-2.41.49-4.98-1.3-6.98-1.58-1.77-1.69-3.36.08-4.9,1.4-1.21.77-2.73.82-4.13.03-.89-.5-.84-1.27-.62-3.1.9-6.3.16-9.44.43-1.32.11-1.46-.55-1.64-1.65-.39-2.41.12-5.09-1.86-7.11-.3-.31-.41-.81-.07-1.15,2.97-3.04,1.84-6.95,1.35-10.21-.42-2.86.02-5.32.15-8.02.78-16.47-3.96-31.13-16.67-42.31-7.72-6.78-16.96-8.12-26.72-5.62-6.34,1.63-12.16,4.57-17.24,8.7-9.83,8-21.27,12.32-33.58,13.81-30.37,3.7-55-7.99-75.6-29.57-2.83-2.96-5.37-6.22-7.77-9.54-.9-1.25-1.75-1.63-3.09-1.5-.21.02-.42,0-.64,0-3.16-.04-7.18,1.07-9.25-.45-1.96-1.44-.56-5.72-.54-8.74.02-2.23-1.35-1.66-2.49-1.67-10.8-.03-21.6-.14-32.4.02-2.53.04-3.36-.8-3.97-3.1-5-19.08-10.15-38.12-15.18-57.2-.52-1.97-1.19-2.87-3.51-2.81-7.3.2-14.64-.31-21.91.2-4.88.34-9.68.23-14.52.03-1.31-.05-2.03-.09-2.12-1.82-.46-8.9-1.13-17.84-.39-26.68.86-10.25-.01-20.47.51-30.68.24-4.61-.4-8.98-2.3-13.15-1.5-3.3-1.1-6.8-1.36-10.24-.05-.63-.06-1.62.62-1.61,3.39.04,2.16-2.36,2.19-4.02.03-1.9-.33-3.83-.14-5.71.36-3.5-.41-6.42-3.38-8.54-.23-.17-.66-.37-.65-.53.36-4.54-2.18-10.27,1.53-13.34,4.77-3.94,2.62-8.88,4.01-13.21,1.32-4.1,1.28-8.53,2.43-12.73.4-1.48.26-3.18.06-4.73-.29-2.25.2-3.29,2.76-3.2,3.16.11,6.34-.23,9.51-.38,1.83-.09,3.13.51,3.1,2.59-.04,2.39,1.18,2.91,3.37,2.87,24.45-.43,48.9-.81,73.35-1.15,24.35-.34,48.7-.62,73.04-.93,34.51-.45,69.02-.9,103.53-1.36,7.83-.1,15.66-.26,23.5-.39,1.13-.02,2.38.31,2.25-1.62-.05-.81-.33-2.33,1.02-2.23,1.28.09.76,1.53.78,2.38.25,17.17.47,34.34.7,51.51.4,29.57.82,59.13,1.22,88.7.06,4.18-3.42,7.97-7.58,8.19-3.61.19-7.23.27-10.84.22-2.21-.03-2.84.79-2.82,2.98.2,17.81.29,35.61.41,53.42,0,.85.28,1.93-.13,2.5-3.16,4.41.79,3.1,2.55,3.09,6.65-.07,13.3-.39,19.95-.45,1.85-.02,2.22-.62,2.24-2.34.18-19.39.39-38.79.68-58.18.62-41.96,1.28-83.93,1.98-125.89.05-3.25-.53-6.08-2.8-8.51-1.06-1.14-.67-2.6.4-3.36,1.43-1.02,1.88-2.26,1.65-3.8-.31-2.04.65-2.48,2.46-2.6,4.13-.28,7.38-6.4,5.83-10.24-.96-2.4-2.5-4-4.44-5.6-8.92-7.4-6.33-22.28,4.65-27.58,2.75-1.93,7-1.93,9.33-1.93Zm-198.31,264.08c2.55,4.73,5.84,8.55,9.4,12.12,7.8,7.83,17.4,12.54,27.8,15.86,10.57,3.38,21.2,4.12,32.04,1.29,8.55-2.23,16.44-5.42,23.88-10.54,7.03-4.83,12.62-10.63,17.46-17.42.45-.64,1.26-1.37.72-2.26-.46-.75-1.36-.29-2.04-.28-3.28.04-6.56.21-9.83.24-33.01.3-66.02.11-99.43.98ZM62.79,115.13c0,1.91.01,3.81,0,5.72,0,.81.06,1.45,1.15,1.38,4.05-.25,6.94,2.24,9.84,4.45,1.64,1.25,3.1,1.68,5.14,1.31,17.1-3.05,34.23-5.97,51.34-8.98,7.37-1.29,14.72-2.67,22.06-4.07,1.3-.25,3.3-.52,3.01-2.16-.64-3.64.1-7.41-1.26-10.97-.51-1.34-.99-2.1-2.55-1.87-3.88.55-64.49,6.3-65.15,6.54-5.47,1.94-11.21,1.21-16.81,1.63-6.73.5-6.75.12-6.75,7.02Zm249.08,182.32c0-9.32.01-18.64-.01-27.96,0-1.27.52-2.77-1.78-2.91-15.28-.89-30.57-1.81-45.84-2.9-2.49-.18-3.61,2.62-6.04,2.17-.05,0-.36.9-.39,1.4-.06,1.06.1,2.13-.05,3.17-.29,2.08.56,2.44,2.56,2.65,12.77,1.34,23.73,6.22,31.85,16.63,7.82,10.04,10.75,21.74,11.9,34.08.41,4.39.4,4.22,4.94,4.56,2.51.19,2.95-.62,2.91-2.93-.13-9.32-.05-18.64-.05-27.96Z"/>
</svg>