<svg width="217" height="200" viewBox="0 0 217 200" fill="none" xmlns="http://www.w3.org/2000/svg">
<g clip-path="url(#clip0_282_2149)">
<path d="M181.221 125.126C167.158 125.126 155.434 115.122 152.803 101.855C152.441 100.034 152.252 98.15 152.252 96.2204H216.062C216.062 94.3017 215.908 92.418 215.602 90.5855C212.91 74.0659 198.539 61.4566 181.219 61.4566C161.975 61.4566 146.381 77.0222 146.381 96.2231C146.381 115.424 161.978 130.984 181.219 130.984C198.536 130.984 212.907 118.375 215.602 101.858H209.642C207.011 115.122 195.284 125.128 181.221 125.128V125.126ZM181.221 67.3125C195.287 67.3125 207.017 77.3159 209.642 90.5855H152.803C155.429 77.3186 167.153 67.3125 181.221 67.3125Z" fill="#1C2226"/>
<path d="M21.6496 61.9686C13.7498 61.9686 6.46302 64.5934 0.618484 69.0157C0.410522 69.1747 0.20256 69.331 0 69.4927V199.997H5.64738V127.618C10.4386 130.098 15.8807 131.496 21.6496 131.496C40.8929 131.496 56.4927 115.933 56.4927 96.7351C56.4927 77.5369 40.8929 61.9686 21.6496 61.9686ZM21.6496 125.638C15.7322 125.638 10.2333 123.87 5.64738 120.83V72.6349C10.2306 69.5978 15.7322 67.8246 21.6496 67.8246C37.6465 67.8246 50.6211 80.7653 50.6211 96.7325C50.6211 112.7 37.6465 125.638 21.6496 125.638Z" fill="#1C2226"/>
<path d="M99.0085 101.737V62.4941H93.3612V101.737H99.0085Z" fill="#1C2226"/>
<path d="M104.659 62.4968V68.5711C116.526 72.1876 125.158 83.2042 125.158 96.2258C125.158 112.188 112.189 125.131 96.189 125.131C80.1867 125.128 67.2175 112.185 67.2175 96.2231C67.2175 83.2015 75.8492 72.1903 87.7166 68.5764V62.4968C72.5705 66.2723 61.3486 79.9407 61.3486 96.2258C61.3486 115.427 76.9485 130.987 96.1917 130.987C115.435 130.99 131.029 115.43 131.029 96.2285C131.029 79.9434 119.808 66.2723 104.661 62.4995L104.659 62.4968Z" fill="#1C2226"/>
<path d="M141.528 130.984V0L135.88 0V130.984H141.528Z" fill="#1C2226"/>
</g>
<defs>
<clipPath id="clip0_282_2149">
<rect width="216.064" height="200" fill="white"/>
</clipPath>
</defs>
</svg>
