<svg width="263" height="161" viewBox="0 0 263 161" fill="none" xmlns="http://www.w3.org/2000/svg">
<g clip-path="url(#clip0_282_2166)">
<path d="M253.388 65.7926H160.502C155.195 65.7926 150.894 70.0807 150.894 75.3702V83.3087C150.894 88.5983 155.195 92.8863 160.502 92.8863H253.388C258.694 92.8863 262.996 88.5983 262.996 83.3087V75.3702C262.996 70.0807 258.694 65.7926 253.388 65.7926Z" fill="#1C2226"/>
<path d="M253.388 0H160.502C155.195 0 150.894 4.28805 150.894 9.57763V17.5161C150.894 22.8057 155.195 27.0937 160.502 27.0937H253.388C258.694 27.0937 262.996 22.8057 262.996 17.5161V9.57763C262.996 4.28805 258.694 0 253.388 0Z" fill="#1C2226"/>
<path d="M102.494 65.7926H9.60753C4.30144 65.7926 0 70.0807 0 75.3702V83.3087C0 88.5983 4.30144 92.8863 9.60753 92.8863H102.494C107.8 92.8863 112.101 88.5983 112.101 83.3087V75.3702C112.101 70.0807 107.8 65.7926 102.494 65.7926Z" fill="#1C2226"/>
<path d="M102.494 0H9.60753C4.30144 0 0 4.28805 0 9.57763V17.5161C0 22.8057 4.30144 27.0937 9.60753 27.0937H102.494C107.8 27.0937 112.101 22.8057 112.101 17.5161V9.57763C112.101 4.28805 107.8 0 102.494 0Z" fill="#1C2226"/>
<path d="M14.554 134.182V154.434H10.2372V153.333C9.13191 154.24 7.86359 154.696 6.42767 154.696C4.59766 154.696 3.06662 154.019 1.83907 152.664C0.611512 151.31 0 149.612 0 147.571C0 145.53 0.620572 143.773 1.87077 142.45C3.11645 141.127 4.71544 140.463 6.66322 140.463C7.87265 140.463 9.0685 140.752 10.2417 141.335V134.186H14.5585L14.554 134.182ZM10.2372 150.677V144.139C9.45352 143.606 8.64723 143.34 7.82282 143.34C6.73569 143.34 5.89316 143.714 5.28618 144.468C4.6792 145.223 4.37571 146.279 4.37571 147.643C4.37571 148.898 4.67467 149.905 5.27712 150.664C5.87958 151.423 6.67681 151.802 7.67787 151.802C8.56117 151.802 9.41276 151.427 10.2372 150.673V150.677Z" fill="#1C2226"/>
<path d="M31.4951 150.185V152.894C29.8463 154.091 27.8079 154.692 25.3709 154.692C22.9339 154.692 21.0269 154.046 19.582 152.754C18.137 151.463 17.4167 149.752 17.4167 147.625C17.4167 145.498 18.0962 143.818 19.4506 142.472C20.8095 141.127 22.5399 140.454 24.6417 140.454C26.7434 140.454 28.4874 141.163 29.8418 142.576C31.1962 143.994 31.8258 145.891 31.7397 148.266H21.8785C21.9646 149.508 22.4085 150.465 23.2012 151.133C23.9939 151.802 25.0629 152.136 26.3992 152.136C28.0163 152.136 29.7149 151.486 31.4906 150.181L31.4951 150.185ZM21.9691 146.008H27.9302C27.6992 144.017 26.7027 143.023 24.9497 143.023C23.1967 143.023 22.182 144.017 21.9691 146.008Z" fill="#1C2226"/>
<path d="M38.9419 140.752V142.504C40.405 141.14 41.9995 140.458 43.7163 140.458C46.0717 140.458 47.7205 141.429 48.6627 143.371C50.3206 141.429 52.1279 140.458 54.0757 140.458C55.6566 140.458 56.9476 140.937 57.9486 141.894C58.9497 142.852 59.448 144.098 59.448 145.638V154.43H55.1311V146.401C55.1311 145.435 54.9092 144.681 54.4608 144.143C54.0123 143.606 53.3917 143.339 52.5945 143.339C51.3307 143.339 50.1938 144.112 49.1836 145.66V154.43H44.8804V146.315C44.8804 145.358 44.6403 144.622 44.1602 144.107C43.68 143.592 43.0413 143.339 42.2486 143.339C41.1162 143.339 40.0155 143.972 38.9465 145.24V154.43H34.6296V140.747H38.9465L38.9419 140.752Z" fill="#1C2226"/>
<path d="M70.1472 140.458C72.2989 140.458 74.1243 141.086 75.6237 142.346C77.123 143.606 77.8704 145.353 77.8704 147.598C77.8704 149.842 77.1094 151.598 75.5874 152.836C74.0654 154.073 72.2536 154.692 70.1472 154.692C67.8688 154.692 66.0071 154.032 64.5576 152.709C63.1081 151.391 62.3833 149.675 62.3833 147.566C62.3833 145.457 63.1216 143.696 64.6029 142.4C66.0795 141.104 67.9322 140.454 70.1518 140.454L70.1472 140.458ZM70.1472 152.14C72.2128 152.14 73.2456 150.587 73.2456 147.48C73.2456 144.373 72.2128 143.023 70.1472 143.023C69.1598 143.023 68.3852 143.416 67.828 144.197C67.2709 144.983 66.99 146.103 66.99 147.566C66.99 150.614 68.0409 152.14 70.1472 152.14Z" fill="#1C2226"/>
<path d="M92.7596 150.695V153.784C91.0746 154.394 89.5254 154.696 88.1212 154.696C85.7068 154.696 83.7772 154.05 82.3322 152.759C80.8872 151.468 80.167 149.756 80.167 147.629C80.167 145.502 80.8963 143.836 82.3548 142.486C83.8134 141.136 85.6706 140.463 87.9309 140.463C89.385 140.463 90.9251 140.761 92.5558 141.362V144.563C91.3645 143.954 90.1913 143.651 89.0362 143.651C87.7452 143.651 86.7124 144.008 85.9379 144.726C85.1633 145.444 84.7737 146.401 84.7737 147.602C84.7737 148.803 85.1497 149.788 85.9061 150.528C86.6626 151.269 87.6546 151.639 88.8867 151.639C89.7972 151.639 91.0881 151.328 92.7551 150.695H92.7596Z" fill="#1C2226"/>
<path d="M100.089 140.752V144.667H100.147C101.398 141.863 102.856 140.463 104.523 140.463C105.316 140.463 106.272 140.878 107.386 141.709L106.195 145.52C105.13 144.843 104.274 144.504 103.635 144.504C102.639 144.504 101.796 145.123 101.112 146.356C100.428 147.589 100.089 148.307 100.089 148.51V154.434H95.7717V140.752H100.089Z" fill="#1C2226"/>
<path d="M123.023 151.057V153.45C121.587 154.281 120.241 154.696 118.982 154.696C117.623 154.696 116.821 154.186 116.568 153.161C115.064 154.186 113.556 154.696 112.047 154.696C110.983 154.696 110.072 154.362 109.329 153.689C108.582 153.016 108.21 152.235 108.21 151.346C108.21 150.153 108.595 149.196 109.366 148.465C110.136 147.733 112.468 146.794 116.368 145.642C116.464 144.116 115.671 143.353 113.986 143.353C112.156 143.353 110.466 144.116 108.926 145.642V142.134C110.729 141.023 112.713 140.467 114.874 140.467C118.751 140.467 120.69 141.858 120.69 144.631V150.871C120.69 151.513 120.925 151.829 121.401 151.829C121.759 151.829 122.302 151.571 123.032 151.061L123.023 151.057ZM116.364 151.111V147.796C114.919 148.302 113.927 148.754 113.392 149.156C112.853 149.557 112.586 150.068 112.586 150.691C112.586 151.088 112.722 151.431 112.994 151.716C113.266 152 113.596 152.145 113.981 152.145C114.797 152.145 115.589 151.802 116.364 151.111Z" fill="#1C2226"/>
<path d="M136.806 150.695V153.784C135.121 154.394 133.572 154.696 132.168 154.696C129.754 154.696 127.824 154.05 126.379 152.759C124.934 151.468 124.214 149.756 124.214 147.629C124.214 145.502 124.943 143.836 126.402 142.486C127.86 141.136 129.717 140.463 131.978 140.463C133.432 140.463 134.972 140.761 136.603 141.362V144.563C135.411 143.954 134.238 143.651 133.083 143.651C131.792 143.651 130.759 144.008 129.985 144.726C129.21 145.444 128.821 146.401 128.821 147.602C128.821 148.803 129.197 149.788 129.953 150.528C130.709 151.269 131.701 151.639 132.934 151.639C133.844 151.639 135.135 151.328 136.802 150.695H136.806Z" fill="#1C2226"/>
<path d="M153.082 140.752L143.882 161.005H139.28L143.311 152.199L137.944 140.752H142.55L145.454 147.801L148.552 140.752H153.082Z" fill="#1C2226"/>
<path d="M173.017 140.752V143.696H168.016V149.336C168.016 150.013 168.202 150.546 168.578 150.939C168.95 151.332 169.466 151.526 170.127 151.526C171.02 151.526 171.985 151.26 173.022 150.727V153.843C171.645 154.412 170.313 154.696 169.022 154.696C167.337 154.696 166.028 154.263 165.095 153.391C164.162 152.52 163.7 151.246 163.7 149.562V143.692H161.738V142.852L167.482 136.444H168.021V140.747H173.022L173.017 140.752Z" fill="#1C2226"/>
<path d="M179.676 140.752V144.667H179.735C180.985 141.863 182.443 140.463 184.11 140.463C184.903 140.463 185.859 140.878 186.973 141.709L185.782 145.52C184.713 144.843 183.861 144.504 183.222 144.504C182.226 144.504 181.383 145.123 180.699 146.356C180.015 147.589 179.676 148.307 179.676 148.51V154.434H175.359V140.752H179.676Z" fill="#1C2226"/>
<path d="M202.605 151.057V153.45C201.169 154.281 199.824 154.696 198.565 154.696C197.206 154.696 196.404 154.186 196.15 153.161C194.646 154.186 193.138 154.696 191.63 154.696C190.561 154.696 189.655 154.362 188.912 153.689C188.164 153.016 187.793 152.235 187.793 151.346C187.793 150.153 188.178 149.196 188.948 148.465C189.718 147.733 192.051 146.794 195.951 145.642C196.046 144.116 195.253 143.353 193.568 143.353C191.738 143.353 190.049 144.116 188.509 145.642V142.134C190.312 141.023 192.296 140.467 194.456 140.467C198.334 140.467 200.272 141.858 200.272 144.631V150.871C200.272 151.513 200.508 151.829 200.984 151.829C201.341 151.829 201.885 151.571 202.614 151.061L202.605 151.057ZM195.946 151.111V147.796C194.501 148.302 193.509 148.754 192.97 149.156C192.431 149.557 192.164 150.068 192.164 150.691C192.164 151.088 192.3 151.431 192.572 151.716C192.844 152 193.174 152.145 193.559 152.145C194.375 152.145 195.167 151.802 195.942 151.111H195.946Z" fill="#1C2226"/>
<path d="M216.394 150.695V153.784C214.709 154.394 213.159 154.696 211.755 154.696C209.341 154.696 207.411 154.05 205.966 152.759C204.521 151.468 203.801 149.756 203.801 147.629C203.801 145.502 204.53 143.836 205.989 142.486C207.447 141.136 209.305 140.463 211.565 140.463C213.019 140.463 214.559 140.761 216.19 141.362V144.563C214.998 143.954 213.825 143.651 212.67 143.651C211.379 143.651 210.346 144.008 209.572 144.726C208.797 145.444 208.408 146.401 208.408 147.602C208.408 148.803 208.784 149.788 209.54 150.528C210.297 151.269 211.289 151.639 212.521 151.639C213.431 151.639 214.722 151.328 216.389 150.695H216.394Z" fill="#1C2226"/>
<path d="M223.691 134.182V147.516H223.75L229.077 140.747H234.146L228.778 147.516L234.377 154.43H229.095L223.75 147.688H223.691V154.43H219.374V134.177H223.691V134.182Z" fill="#1C2226"/>
<path d="M248.224 150.185V152.894C246.575 154.091 244.537 154.692 242.1 154.692C239.663 154.692 237.756 154.046 236.311 152.754C234.866 151.463 234.146 149.752 234.146 147.625C234.146 145.498 234.825 143.818 236.18 142.472C237.539 141.127 239.269 140.454 241.371 140.454C243.472 140.454 245.216 141.163 246.571 142.576C247.925 143.994 248.555 145.891 248.469 148.266H238.608C238.694 149.508 239.138 150.465 239.93 151.133C240.723 151.802 241.792 152.136 243.128 152.136C244.745 152.136 246.444 151.486 248.22 150.181L248.224 150.185ZM238.698 146.008H244.659C244.428 144.017 243.432 143.023 241.679 143.023C239.926 143.023 238.911 144.017 238.698 146.008Z" fill="#1C2226"/>
<path d="M255.698 140.752V144.667H255.757C257.007 141.863 258.466 140.463 260.133 140.463C260.925 140.463 261.881 140.878 262.996 141.709L261.804 145.52C260.735 144.843 259.884 144.504 259.245 144.504C258.248 144.504 257.406 145.123 256.722 146.356C256.038 147.589 255.698 148.307 255.698 148.51V154.434H251.381V140.752H255.698Z" fill="#1C2226"/>
</g>
<defs>
<clipPath id="clip0_282_2166">
<rect width="263" height="161" fill="white"/>
</clipPath>
</defs>
</svg>
